<svg xmlns="http://www.w3.org/2000/svg" xmlns:xlink="http://www.w3.org/1999/xlink" width="5191" height="4893.292" viewBox="0 0 5191 4893.292">
  <defs>
    <linearGradient id="linear-gradient" x1="0.125" y1="0.562" x2="0.124" y2="0.941" gradientUnits="objectBoundingBox">
      <stop offset="0" stop-color="gray"/>
      <stop offset="1" stop-color="#b3b3b3"/>
    </linearGradient>
    <radialGradient id="radial-gradient" cx="0.507" cy="0.237" r="0.586" gradientTransform="matrix(-0.742, 0.67, -0.69, -0.765, 1.032, 0.97)" gradientUnits="objectBoundingBox">
      <stop offset="0" stop-color="#f9f9f9"/>
      <stop offset="1" stop-color="gray"/>
    </radialGradient>
  </defs>
  <g id="Grupo_9" data-name="Grupo 9" transform="translate(-938 -3351)">
    <text id="L" transform="translate(3534 5025)" fill="#707070" font-size="20" font-family="SegoeUI, Segoe UI"><tspan x="-4.707" y="0">L</tspan></text>
    <g id="depositphotos_42847649-stock-illustration-mexican-carnitas-menu-stamp_1_" data-name="depositphotos_42847649-stock-illustration-mexican-carnitas-menu-stamp (1)" transform="translate(937.752 3704.55)">
      <path id="Trazado_67" data-name="Trazado 67" d="M1573.35-351.472c-325.518,36.014-639.955,126.051-897.6,256.259C485.981.364,179.855,219.223,91.2,318.956L63.5,350.815l47.1-8.311c24.933-5.541,51.252-9.7,58.178-9.7s8.311-11.082,4.156-24.934C166,287.1,166,287.1,181.241,309.26c8.311,13.852,12.467,47.1,9.7,73.415-4.156,26.318-1.385,47.1,4.156,44.326C207.559,421.46,335,314.8,397.329,256.623c24.933-23.548,49.867-42.941,56.793-44.326s63.718-34.629,126.052-72.029C983.261-110.451,1438.987-222.65,1922.416-192.176c337.985,22.163,580.392,85.881,883.746,234.1,342.14,164.837,637.184,419.71,867.125,746.614,74.8,105.274,218.858,375.385,246.562,461.266,9.7,29.089,24.933,56.793,33.245,62.333,18.007,11.082,162.066,18.008,162.066,6.926,0-2.77-22.164-63.718-49.867-132.978C3793.8,507.341,3246.65-2.406,2529.125-243.428c-191.155-63.718-432.177-102.5-678.739-108.044C1728.49-354.243,1603.823-354.243,1573.35-351.472Z" transform="translate(812.904 0)" fill="#fc6706"/>
      <path id="Trazado_68" data-name="Trazado 68" d="M357.911-330.23c0,2.77-4.156,47.1-6.926,101.119-6.926,96.963-24.933,142.674-38.785,95.577-4.155-15.237-15.237-62.333-23.548-106.659l-15.237-78.955H218.008c-49.867,0-54.022,2.77-47.1,31.859,5.541,18.008,9.7,98.348,11.081,180.074L184.763,41h36.015c36.015,0,37.4-1.385,24.933-52.637-15.237-65.1-16.622-206.392-1.385-189.769,6.926,8.311,22.163,62.333,36.015,120.511C299.733,4.985,309.43,27.148,330.207,27.148c26.319,0,27.7-5.541,49.867-170.378,13.852-105.273,33.244-74.8,33.244,52.637,0,117.74,0,117.74,36.015,117.74,33.244,0,34.63-2.77,27.7-52.637-5.541-27.7-9.7-109.43-11.082-180.074L463.185-333H410.548C381.459-333,357.911-331.615,357.911-330.23Z" transform="translate(2159.935 264.105)" fill="#fc6706"/>
      <path id="Trazado_69" data-name="Trazado 69" d="M250.969-325.276c-13.852,23.548-52.637,264.57-48.481,303.355,4.156,37.4,11.082,41.556,85.881,56.792C395.028,55.649,408.88,48.724,399.184-14.994c-4.156-27.7,1.385-95.578,13.852-150.985,11.081-55.407,18.007-109.43,13.852-120.511-4.156-9.7-26.319-22.163-48.481-26.319s-58.178-12.467-80.341-16.622S255.124-332.2,250.969-325.276Z" transform="translate(2595.165 279.928)" fill="#fc6706"/>
      <path id="Trazado_70" data-name="Trazado 70" d="M268.7-306.452c11.081,30.475,60.948,253.489,62.333,277.037,0,9.7-13.852,18.008-31.859,18.008-30.474,0-34.63-12.466-65.1-145.444-29.089-131.593-36.015-146.829-60.948-142.674-16.622,2.77-27.7,13.852-24.933,24.933,2.77,9.7,9.7,47.1,18.007,81.726,6.926,34.63,20.778,101.119,30.474,146.83L213.3,37.073l74.8-1.385C393.371,31.533,407.223,14.91,382.29-88.978c-11.081-44.326-27.7-117.741-37.4-162.067C328.267-320.3,322.727-330,292.253-330,265.934-330,260.393-324.459,268.7-306.452Z" transform="translate(1895.92 302.661)" fill="#fc6706"/>
      <path id="Trazado_71" data-name="Trazado 71" d="M255.383-165.934C230.45-77.282,215.213.288,220.754,5.829c20.778,20.778,148.215,54.022,160.681,41.556,11.081-11.082,109.429-322.748,103.889-326.9-2.77-2.771-18.008-8.312-34.63-12.467-24.934-8.311-31.859-4.156-31.859,12.467,0,30.474-69.259,260.414-81.726,274.266C323.258,9.985,280.317-8.023,280.317-28.8c0-26.319,70.644-249.333,84.5-265.955C377.279-311.378,352.346-328,317.717-328,308.021-328,280.317-255.971,255.383-165.934Z" transform="translate(2819.306 328.364)" fill="#fc6706"/>
      <path id="Trazado_72" data-name="Trazado 72" d="M317.376-305.26c-19.393,8.311-37.4,16.623-38.785,18.008-2.771,2.77,2.77,27.7,12.467,56.792s19.393,60.949,20.778,72.029c2.77,11.082,6.926,36.015,12.467,54.022,11.082,47.1-8.311,29.089-69.259-59.563-29.089-41.556-58.178-76.185-65.1-76.185-11.082,0-65.1,24.933-77.57,34.63-2.77,2.77,26.318,70.644,65.1,152.37,38.785,80.341,70.644,153.756,70.644,160.682,0,11.081,49.867,5.541,65.1-6.926,2.77-1.385-22.163-51.252-52.637-110.815S207.947-121.03,210.717-123.8c4.155-4.155,38.785,37.4,78.955,91.422C364.473,67.354,368.628,71.51,396.332,53.5c12.467-8.311,11.082-30.474-8.311-92.807-59.563-193.925-47.1-216.089,24.933-51.252,26.318,58.178,49.867,108.044,51.252,110.815s15.237-1.385,29.089-9.7C519.613-1.905,516.843-11.6,443.428-162.586c-41.555-88.652-80.341-160.681-84.5-159.3C354.776-321.882,336.769-314.956,317.376-305.26Z" transform="translate(1438.619 406.742)" fill="#fc6706"/>
      <path id="Trazado_73" data-name="Trazado 73" d="M332.435-177.326C214.695-5.564,221.621-20.8,257.636-11.1c20.778,5.541,37.4-1.385,54.022-20.778,19.393-23.548,27.7-26.319,52.637-12.467C390.613-30.5,392-23.571,379.532-.022c-8.311,16.622-12.467,30.474-9.7,31.859,2.771,2.77,16.622,11.081,30.474,18.007,24.933,13.852,30.474,2.77,72.029-159.3,24.934-96.962,44.326-175.918,42.941-177.3C500.043-297.837,450.176-320,440.48-320,434.939-318.615,386.458-254.9,332.435-177.326Z" transform="translate(3009.594 431.179)" fill="#fc6706"/>
      <path id="Trazado_74" data-name="Trazado 74" d="M352.087-259.936,285.6-210.07l33.245,36.015c45.711,49.867,162.066,227.17,162.066,247.948a16.843,16.843,0,0,1-16.622,16.622c-30.474,0-131.592-74.8-126.052-92.807C341.006-10.6,316.072-48,281.443-84.018l-62.333-65.1L159.547-96.484C126.3-67.4,94.443-38.307,86.132-31.381c-8.311,8.311-8.311,15.237,1.385,22.163,18.007,12.467,153.755,162.066,196.7,216.089l31.859,41.556,29.089-29.089,27.7-29.089-27.7-15.237c-15.237-8.311-41.555-33.245-58.178-56.793-44.326-62.333-2.77-70.644,67.874-15.237,29.089,23.548,58.178,42.941,63.718,42.941s38.785-24.934,73.415-56.793c36.015-30.474,81.726-66.489,102.5-78.955C616.657-2.292,633.279-20.3,633.279-30c0-34.63-31.859-33.244-69.259,2.771L526.62,8.79,490.605-36.922,454.591-82.633l33.244-20.778c38.785-22.163,40.17-26.318,20.778-55.407-9.7-16.622-16.622-15.237-41.555,6.926-30.474,27.7-30.474,27.7-63.718-13.852L370.094-207.3l29.089-24.933c16.622-12.466,41.556-23.548,58.178-23.548,26.318,0,27.7-1.385,2.77-27.7-13.852-15.237-29.089-27.7-33.244-26.318C422.731-309.8,388.1-287.64,352.087-259.936Z" transform="translate(1025.753 560.885)" fill="#fc6706"/>
      <path id="Trazado_75" data-name="Trazado 75" d="M424.779-278.153c-15.237,18.007-13.852,22.162,11.082,29.089,16.622,4.156,30.474,11.082,30.474,16.622-1.385,4.155-47.1,58.178-103.889,119.126C265.483-9.428,261.327-1.116,282.105,22.432c22.163,23.548,26.319,22.163,78.955-41.555C392.92-55.139,441.4-110.546,469.1-141.02c49.867-52.637,52.637-54.022,60.948-24.934,9.7,37.4,23.548,40.171,48.481,9.7,16.622-20.778,11.081-30.474-48.481-83.111C456.638-307.242,449.712-310.012,424.779-278.153Z" transform="translate(3492.102 716.235)" fill="#fc6706"/>
      <path id="Trazado_76" data-name="Trazado 76" d="M1265.246-277.5C795.669-202.7,367.647,89.576,123.855,503.746c-49.866,84.5-52.637,98.348-15.237,88.652,15.237-4.155,27.7-12.467,27.7-18.007,0-29.089,153.755-241.022,241.022-331.059,493.125-512.517,1227.272-642.725,1865.842-326.9,55.407,27.7,131.592,69.259,167.607,91.422,91.422,59.563,137.133,48.481,52.637-12.467-34.629-23.548-67.874-48.481-76.185-55.407-36.014-29.088-247.948-126.051-349.066-159.3C1808.238-294.12,1511.808-317.668,1265.246-277.5Z" transform="translate(1065.6 728.046)" fill="#fc6706"/>
      <path id="Trazado_77" data-name="Trazado 77" d="M1156.719-270.489C806.267-209.541,451.66,1.007,228.646,282.2,123.372,413.792,76.276,495.517,94.283,513.525c8.311,8.311,22.163,1.385,38.785-23.548C346.386,189.392,511.223,35.636,757.786-89.03c227.17-114.97,403.088-155.14,682.9-153.755,271.5,1.385,371.229,23.548,648.266,137.133,44.326,19.393,63.719,20.778,74.8,9.7,18.007-18.007-92.808-73.414-247.948-126.051C1714.947-289.881,1385.274-310.659,1156.719-270.489Z" transform="translate(1160.276 805.533)" fill="#fc6706"/>
      <path id="Trazado_78" data-name="Trazado 78" d="M446.291-187.667c-34.629,67.874-67.874,112.2-110.814,145.444C275.914,2.1,274.529,6.258,293.921,35.347L314.7,64.436l62.333-54.022c33.244-29.089,99.733-67.874,148.215-84.5,105.273-38.785,110.815-44.326,90.037-73.415-16.623-22.162-20.778-22.162-72.03,4.156-30.474,15.237-56.792,24.933-60.948,22.163-6.926-8.311,19.393-56.793,44.326-80.341,16.622-16.622,15.237-24.933-5.541-52.637L496.158-287.4Z" transform="translate(3631.271 850.148)" fill="#fc6706"/>
      <path id="Trazado_79" data-name="Trazado 79" d="M298.958-155.7C181.217,21.607-.242,395.607,21.921,417.769c8.311,6.926,91.422,11.081,135.748,6.926,12.467,0,30.474-24.933,40.17-54.022,40.17-112.2,167.607-358.763,225.785-434.947C474.876-130.763,491.5-168.163,481.8-191.711a21.519,21.519,0,0,0-27.7-12.467c-11.081,4.156-20.778,0-20.778-8.311-1.385-8.311-4.155-22.163-5.541-29.089-1.385-8.311-4.156-20.778-5.541-27.7C418.083-308.067,376.528-270.667,298.958-155.7Z" transform="translate(254.699 892.978)" fill="#fc6706"/>
      <path id="Trazado_80" data-name="Trazado 80" d="M122.992-217.511,66.2-151.022l85.881,70.644C197.792-40.208,258.74,13.814,286.444,40.133c49.867,48.481,49.867,48.481,74.8,22.163,27.7-30.474,27.7-31.859-58.178-91.422-38.785-27.7-40.17-49.867-4.156-81.726,15.237-13.852,27.7-36.015,27.7-48.481C326.614-180.112,211.644-284,188.1-284,182.555-284,153.466-253.527,122.992-217.511Z" transform="translate(847.604 893.845)" fill="#fc6706"/>
      <path id="Trazado_81" data-name="Trazado 81" d="M756.122-273.52c-52.637,5.541-105.274,15.237-117.741,19.392-24.933,9.7-175.918,34.63-247.948,40.17-24.933,1.385-67.874-8.311-96.963-20.778-84.5-40.17-109.429-34.63-59.563,15.237,15.237,15.237,27.7,42.941,27.7,60.948,0,37.4-58.178,91.422-98.348,91.422-45.711,0-1.385,65.1,65.1,96.963,47.1,23.548,65.1,26.318,88.652,13.852s37.4-9.7,73.415,11.081c24.933,15.237,66.489,34.63,94.192,42.941,47.1,15.237,51.252,22.163,66.489,92.807,12.467,62.333,11.081,85.882-5.541,126.052-26.318,63.719-27.7,62.333,24.933,56.793,41.556-4.156,45.711-8.311,56.792-73.415,6.926-38.785,18.007-92.807,24.933-123.282,12.467-48.481,16.623-52.637,49.867-44.326,162.066,37.4,304.74,13.852,300.584-48.481-1.385-18.008-11.081-34.63-20.778-37.4-11.082-4.156-29.089-19.393-41.556-33.245-29.089-37.4-96.963-42.941-96.963-9.7,0,27.7,38.785,54.022,65.1,44.326,8.311-2.771,20.778,2.77,26.318,12.467s5.541,13.852-1.385,8.311c-5.541-5.541-22.163-4.156-36.015,4.155-15.237,8.311-26.319,8.311-26.319,0,0-6.926-9.7-16.622-22.163-20.778-15.237-5.54-20.778-2.77-15.237,9.7,4.156,11.081-1.385,19.393-12.466,19.393-23.548,0-24.933-12.467-5.541-31.859,9.7-9.7,11.081-26.318,1.385-51.252-11.082-27.7-9.7-36.015,6.926-40.17,15.237-2.77,13.852-8.311-6.926-20.778-23.548-15.237-26.319-13.852-20.778,2.771,5.541,13.852,0,20.778-16.622,22.163-15.237,0-19.393,4.156-8.311,8.311,8.311,2.771,16.622,15.237,16.622,26.319s6.926,19.393,15.237,19.393c6.926,0,9.7,6.926,4.156,15.237s-26.319,12.467-49.867,6.926c-38.785-6.926-40.17-5.54-23.548,15.237,18.007,20.778,16.622,20.778-11.082,4.156-16.622-11.081-26.318-24.933-23.548-30.474,4.155-5.54-2.77-11.081-13.852-11.081-12.467,0-22.163,5.541-22.163,13.852,0,24.933-2.77,34.63-15.237,59.563-11.082,19.393-19.393,20.778-40.17,9.7-15.237-8.311-27.7-20.778-27.7-29.089,0-26.318-42.941-56.793-69.259-49.867-15.237,4.156-24.933,1.385-19.393-5.54,4.156-6.926,15.237-12.467,24.933-12.467s29.089-9.7,44.326-20.778c26.318-20.778,26.318-20.778,0-11.082C540.033-22.8,535.878-25.572,542.8-43.58c4.156-12.467,4.156-23.548-2.77-23.548-22.163,0-29.089,18.007-12.467,37.4,11.082,15.237,9.7,16.622-8.311,9.7-12.467-4.156-22.163-13.852-22.163-22.163,0-6.926-6.926-8.311-13.852-4.155-8.311,5.541-11.081,15.237-6.926,22.163,5.541,6.926-2.77,12.467-15.237,12.467-19.393,0-20.778-4.156-8.311-16.622,27.7-27.7,19.393-36.015-27.7-30.474-42.941,5.541-41.555-15.237,2.77-24.934,31.859-6.926,55.407-34.629,47.1-56.793-4.156-11.081-1.385-24.933,6.926-30.474,8.311-4.156,15.237,1.385,15.237,13.852,0,29.089,49.867,81.726,60.948,65.1,4.155-8.311-1.385-16.622-12.467-22.162-11.082-4.156-20.778-18.008-20.778-31.859,0-20.778,2.77-20.778,18.007-2.77,8.311,11.081,27.7,29.088,41.556,38.785,20.778,16.622,23.548,16.622,15.237-5.541-6.926-18.008-5.541-22.163,6.926-15.237,9.7,6.926,23.548,2.771,33.244-9.7,22.163-26.318,76.185-38.785,84.5-18.007,4.155,9.7,11.081,8.311,20.778-5.541,11.081-16.622,15.237-16.622,15.237-1.385,0,13.852,4.156,15.237,19.393,2.771,23.548-19.393,91.422,2.77,90.037,29.088q0,20.778-8.311,0c-2.77-8.311-12.466-16.622-19.392-16.622-5.541,0-6.926,11.081-2.771,23.548C846.159-108.683,842-105.913,824-112.839c-15.237-5.541-20.778-4.155-15.237,5.541,5.541,8.311,19.393,11.081,30.474,6.926,15.237-6.926,18.007-2.771,12.467,12.466-6.926,18.007-1.385,16.622,24.933-2.771,18.007-13.852,37.4-42.941,41.556-65.1,6.926-29.089,13.852-37.4,31.859-30.474,12.467,5.541,27.7,1.385,34.63-8.311,9.7-13.852,11.081-13.852,9.7,2.77-4.156,45.711,2.77,62.333,15.237,30.474,6.926-16.622,20.778-30.474,30.474-29.088,13.852,0,13.852,2.77,1.385,8.311-22.163,8.311-23.548,45.711-2.77,45.711,6.926,0,9.7,5.541,5.541,13.852-4.156,6.926-1.385,13.852,6.926,13.852,9.7,0,12.467-11.082,5.541-31.859-4.156-16.622-4.156-26.318,1.385-20.778,6.926,5.541,19.392,4.156,30.474-4.155,9.7-8.311,18.007-11.081,18.007-4.155s6.926,2.77,13.852-8.311c9.7-13.852,13.852-15.237,13.852-2.77,0,9.7-8.311,20.778-19.393,24.934s-16.622,16.622-13.852,26.318c4.156,11.081,15.237,16.622,23.548,12.467,9.7-2.771,18.008,9.7,19.393,33.244,2.77,31.859-5.541,41.555-34.63,52.637-36.015,13.852-37.4,13.852-5.541,22.163,19.392,5.541,27.7,2.771,20.778-6.926-5.541-8.311,0-11.081,13.852-5.541,13.852,4.156,23.548,4.156,23.548-2.77s11.081-15.237,26.318-19.393c19.393-4.155,23.548,0,19.393,19.393-4.156,13.852-12.467,22.163-19.393,18.007s-26.318,2.77-42.941,13.852c-38.785,27.7-85.881,27.7-108.044,1.385-13.852-16.622-13.852-20.778,0-20.778,11.081,0,15.237-4.156,9.7-8.311-4.156-4.156-15.237-4.156-23.548,1.385-9.7,6.926-2.77,24.933,20.778,56.792,19.393,26.319,29.089,47.1,22.163,47.1a15.372,15.372,0,0,1-15.237-15.237c0-6.926-6.926-9.7-15.237-5.541-8.311,5.541-11.082,13.852-6.926,18.007s1.385,15.237-6.926,26.318C1009.61,122.643,1011,126.8,1026.232,126.8c26.319,0,49.867,113.585,38.785,188.385-9.7,59.563-8.311,60.948,29.089,60.948,34.63,0,41.556-6.926,60.948-72.03,11.082-38.785,20.778-88.652,20.778-109.43s20.778-69.259,47.1-108.044c52.637-77.57,77.57-182.844,51.252-214.7-12.467-15.237-11.081-23.548,11.082-38.785,29.089-20.778,29.089-20.778-5.541-38.785-19.393-9.7-38.785-13.852-44.326-6.926-6.926,5.541-2.77,13.852,6.926,16.622,8.311,4.156,16.622,12.467,16.622,19.393s-37.4-5.541-83.111-29.089c-45.711-22.163-95.578-41.556-110.815-41.556-16.622,0-40.17-5.54-52.637-12.466C976.366-277.675,861.4-283.216,756.122-273.52Z" transform="translate(1854.531 967.86)" fill="#fc6706"/>
      <path id="Trazado_82" data-name="Trazado 82" d="M183.813-207.15C103.472-179.446,30.057-90.795,12.05-2.143,3.739,39.413-1.8,207.02.969,395.4,3.739,701.53,6.509,725.078,35.6,784.641c19.393,40.171,54.022,80.341,90.037,103.889,49.867,34.63,72.03,40.17,148.215,40.17,103.889,0,178.689-37.4,223.014-109.43,36.015-58.177,33.244-73.414-15.237-84.5-22.163-5.541-44.326-15.237-48.481-22.163-13.852-22.163-56.792-13.852-83.111,15.237-18.007,19.392-42.941,27.7-84.5,27.7-96.963,0-102.5-20.778-102.5-401.7,0-235.481-4.156-318.592-16.622-318.592-8.311,0,5.541-19.393,31.859-41.556,38.785-36.015,42.941-45.711,26.318-55.407-16.622-11.081-13.852-13.852,11.081-13.852,16.622,0,30.474,5.541,30.474,13.852,0,6.926,15.237,13.852,34.63,13.852,20.778,0,49.867,15.237,69.259,36.015,33.244,36.015,36.015,36.015,99.733,19.393,84.5-23.548,94.192-31.859,73.415-70.644-34.63-66.489-102.5-124.667-171.763-144.059C268.309-232.083,254.457-232.083,183.813-207.15Z" transform="translate(0 1641.178)" fill="#fc6706"/>
      <path id="Trazado_83" data-name="Trazado 83" d="M260.163-174.748C253.237-145.66,243.54-94.408,238-59.778c-4.156,34.63-23.548,137.133-41.556,228.555S143.807,437.5,120.259,563.554C98.1,689.606,73.163,818.428,64.852,851.672,57.926,883.531,51,915.391,51,923.7c0,19.393,167.607,15.237,171.763-4.156,5.541-18.007,33.244-152.37,42.941-196.7,2.77-15.237,5.541-45.711,5.541-66.489,1.385-33.244,4.156-36.015,27.7-23.548,38.785,20.778,56.793,16.622,56.793-9.7,0-20.778,1.385-20.778,18.007,2.77,11.081,13.852,26.319,20.778,34.63,16.622C425,631.428,452.7,703.458,452.7,758.865c0,20.778,6.926,70.645,15.237,109.43l15.237,70.644,84.5-4.155c63.718-2.771,84.5-9.7,81.726-23.548-1.385-9.7-19.392-106.659-37.4-214.7-19.393-106.659-51.252-272.881-70.644-367.074s-37.4-195.311-40.17-225.785c-5.541-59.563-13.852-109.429-34.63-198.081-6.926-30.474-15.237-72.029-20.778-94.192C438.851-224.615,434.7-226,355.74-226H274.014Z" transform="translate(652.256 1639.251)" fill="#fc6706"/>
      <path id="Trazado_84" data-name="Trazado 84" d="M180.415-223.171,107-217.63V930.687l83.111-2.77,83.111-4.156V542.835H341.1c58.178,0,73.415,5.541,96.963,36.015,24.933,33.244,29.089,56.792,29.089,195.311V932.072l80.341-4.155,78.955-4.156L630.6,754.768c2.77-148.215,0-178.689-26.319-239.637-29.089-67.874-29.089-69.259-4.156-120.511,19.393-41.555,26.318-90.037,29.089-218.859,1.385-142.674-1.385-177.3-27.7-242.407C557.185-177.46,492.081-219.015,356.333-224.556,299.54-225.941,219.2-225.941,180.415-223.171ZM368.8-76.341c16.622-5.541,18.007-4.156,4.156,6.926-15.237,9.7-11.082,15.237,16.622,22.163,66.489,16.622,80.341,59.563,73.415,223.015-4.155,101.118-11.081,152.37-24.933,166.222-16.622,16.622-87.267,26.318-148.215,22.163-13.852-1.385-16.622-47.1-13.852-206.392C280.148-43.1,280.148-45.867,312.007-50.023c27.7-4.156,29.089-8.311,15.237-27.7-15.237-19.393-15.237-20.778,0-6.926C336.94-76.341,356.333-72.186,368.8-76.341Z" transform="translate(1371.959 1646.118)" fill="#fc6706"/>
      <path id="Trazado_85" data-name="Trazado 85" d="M158,355.777V938.939l80.341-5.541,78.955-5.541,4.156-308.9c2.77-315.822-2.77-354.607-48.481-315.822-12.467,9.7-18.007,9.7-18.007,0,0-8.311,11.082-20.778,23.548-29.089,19.393-11.081,20.778-16.622,5.541-34.63-12.467-15.237-13.852-22.163-2.77-22.163,8.311,0,15.237-5.541,15.237-13.852,0-6.926-9.7-8.311-23.548-4.156-15.237,5.54-19.393,4.156-12.467-6.926,5.541-9.7,22.163-16.622,36.015-16.622,24.933,0,29.089-19.393,9.7-49.867-4.156-8.311,2.77-30.474,18.007-47.1,23.548-26.319,31.859-29.089,45.711-13.852,9.7,11.081,11.081,13.852,1.385,9.7-9.7-5.541-24.933,1.385-34.63,13.852-16.622,20.778-16.622,22.163,4.155,15.237,22.163-9.7,48.481,24.933,31.859,41.555-4.156,4.155-6.926,0-6.926-8.311,0-9.7-5.541-16.622-12.467-16.622S345,148,349.155,182.629c5.541,56.792,4.156,62.333-19.393,54.022-22.163-8.311-23.548-6.926-8.311,9.7s20.778,15.237,37.4-6.926c11.081-13.852,24.933-20.778,33.244-15.237,23.548,13.852,18.007,31.859-8.311,29.089-37.4-2.77-33.244,58.178,12.466,188.385,22.163,63.719,45.711,131.592,51.252,150.985,37.4,113.585,120.511,325.518,132.977,333.829,16.622,12.466,85.881,13.852,128.822,2.77l30.474-8.311V-226H570.785l5.54,311.666c4.156,283.963,9.7,339.37,29.089,297.814,4.156-8.311,5.541-6.926,4.156,2.77-5.541,30.474-47.1,29.089-56.793-2.77-4.156-15.237-15.237-23.548-23.548-19.393-9.7,5.541-11.082,2.771-5.541-5.541C532,344.7,471.051,145.229,403.177-39,392.1-69.474,372.7-123.5,358.852-160.9L335.3-226H158Z" transform="translate(2027.402 1639.251)" fill="#fc6706"/>
      <path id="Trazado_86" data-name="Trazado 86" d="M214,355.777V937.554H380.222V-226H214Z" transform="translate(2747.104 1639.251)" fill="#fc6706"/>
      <path id="Trazado_87" data-name="Trazado 87" d="M239-137.048v87.267H412.148l-4.156,491.74-5.541,490.355,84.5-2.77,84.5-1.385,1.385-56.792c0-66.489,0-723.066-1.385-807.562,0-33.244-5.541-56.793-12.467-51.252-6.926,4.156-16.622,1.385-22.163-6.926S521.578-5.456,514.652-1.3c-6.926,5.541-12.467-1.385-12.467-13.852S495.259-33.16,488.333-29c-8.311,5.541-11.081,15.237-6.926,22.163s-1.385,8.311-13.852,4.156C448.163-11,448.163-13.767,468.94-37.315c12.467-13.852,19.393-34.63,15.237-47.1-5.541-11.081-2.771-20.778,4.155-20.778,8.311,0,13.852-8.311,13.852-18.007,0-19.393,48.481-54.022,59.563-41.556,4.155,4.156-5.541,20.778-23.548,37.4-33.244,31.859-42.941,85.881-18.007,101.118,30.474,19.393,49.866,15.237,47.1-9.7-1.385-13.852-6.926-24.933-13.852-23.548S538.2-63.634,534.044-71.945c-2.771-9.7,6.926-13.852,29.089-9.7,19.393,4.156,31.86,12.467,27.7,19.393s27.7,12.467,69.259,12.467h77.571V-225.7H239Z" transform="translate(3068.4 1643.106)" fill="#fc6706"/>
      <path id="Trazado_88" data-name="Trazado 88" d="M490.83-209.378c-2.77,9.7-15.237,73.415-27.7,142.674-27.7,150.985-73.415,386.466-138.519,724.451C296.9,796.265,278.9,916.776,283.052,923.7c4.156,8.311,42.941,13.852,83.111,13.852,84.5,0,73.415,13.852,105.274-145.444C479.748,746.4,488.06,699.3,489.445,685.45c0-12.467,19.393-37.4,41.556-54.022,29.089-22.163,38.785-26.318,33.245-11.081-9.7,26.318,31.859,26.318,63.718,0,19.393-16.622,22.163-15.237,13.852,4.155-4.156,12.467-2.77,22.163,4.156,22.163s20.777,59.563,30.474,131.592c11.082,72.03,26.319,137.133,34.63,144.059s47.1,11.082,84.5,9.7c88.652-4.155,91.422,44.326-27.7-576.236-12.466-65.1-33.244-189.77-48.481-277.037C705.533-8.526,686.141-113.8,677.83-153.971L661.208-226H579.481C525.459-226,494.986-220.459,490.83-209.378ZM621.037,268.51c-1.384,24.933-4.155,29.089-8.311,13.852-13.852-52.637-27.7-6.926-13.852,49.867,9.7,44.326,23.548,66.489,56.792,85.881,23.549,13.852,48.481,26.318,56.792,26.318,6.926,1.385,15.237,13.852,18.008,27.7,5.541,24.933,4.156,26.319-18.008,4.156-36.015-36.015-77.57-56.793-73.414-34.63,2.77,8.311-2.771,16.622-12.467,18.007-8.311,0-20.777,5.541-27.7,11.082-5.541,6.926-4.156,11.081,2.77,9.7,33.244-6.926,37.4,1.385,12.466,29.089l-26.318,30.474,34.629-19.393c19.393-11.081,38.786-24.933,42.941-31.859,5.54-6.926,16.622-6.926,26.318-1.385,11.082,6.926,5.541,16.622-16.622,31.859-18.008,12.466-36.015,22.163-41.555,19.392-15.237-4.156-6.926,29.089,9.7,42.941,8.312,6.926,2.771,8.311-11.081,4.156-15.237-5.541-27.7,0-33.244,15.237-8.311,19.393-11.081,19.393-27.7-4.156-9.7-13.852-18.008-16.622-18.008-6.926s-6.926,12.467-15.237,8.311c-9.7-6.926-6.926-18.007,6.926-33.244,12.467-13.852,22.163-42.941,20.777-65.1,0-34.63-2.77-36.015-11.081-12.467-6.926,15.237-8.311,34.63-5.541,42.941s-4.156,15.237-15.237,15.237-18.007-5.54-13.852-11.081c8.311-15.237-22.163-73.415-31.859-62.333-4.156,4.156,0,16.622,9.7,29.089C511.607,517.843,511.607,522,492.215,522c-13.852,0-22.163-11.081-22.163-31.859,0-42.941,13.852-55.407,38.786-33.244,18.007,13.852,19.392,12.466,11.081-2.771-6.926-11.081-4.155-23.548,6.926-30.474,15.237-9.7,13.852-12.466-6.926-12.466s-22.163-4.156-8.311-20.778c9.7-11.082,12.466-20.778,5.541-20.778-5.541,0-4.155-6.926,5.541-16.622,13.852-13.852,9.7-20.778-13.852-36.015-30.475-18.007-30.475-18.007,6.926-9.7,29.089,5.54,38.785,2.77,34.63-9.7-5.541-16.622,38.785-65.1,62.333-66.489C618.267,231.11,621.037,247.733,621.037,268.51Z" transform="translate(3626.902 1639.251)" fill="#fc6706"/>
      <path id="Trazado_89" data-name="Trazado 89" d="M587.9-223.787c-65.1,5.541-123.281,34.63-167.607,81.726C363.5-81.113,346.881-40.943,348.267,49.094c0,121.9,48.481,207.778,207.777,362.918C694.562,547.76,727.807,603.167,716.725,677.967c-6.926,42.941-59.563,117.741-59.563,83.111,0-8.311-12.466-11.082-27.7-5.541-36.015,11.081-94.193-24.933-110.815-70.644-12.467-30.474-20.778-33.244-98.348-33.244H335.8l9.7,44.326c27.7,130.207,148.215,232.711,271.5,232.711,84.5-1.385,189.77-60.948,231.326-131.593,27.7-47.1,30.474-69.259,26.318-159.3-6.926-138.518-33.244-185.615-196.7-346.3C544.962,161.294,504.792,101.731,504.792,36.628c0-37.4,58.178-91.422,98.348-91.422,44.326,0,95.577,31.859,103.889,65.1,8.311,29.089,16.622,31.859,90.037,31.859,78.956,0,81.726-1.385,81.726-34.63,0-54.022-49.867-139.9-103.889-180.074C722.266-214.09,661.318-230.712,587.9-223.787Z" transform="translate(4312.457 1648.118)" fill="#fc6706"/>
      <path id="Trazado_90" data-name="Trazado 90" d="M17-115.148c0,6.926,5.541,26.318,13.852,44.326,6.926,18.007,38.785,96.963,69.259,177.3C208.155,377.977,349.444,605.147,553.066,833.7,672.192,966.68,857.806,1137.057,914.6,1163.375c16.622,6.926,30.474,19.393,30.474,26.319,0,5.541,9.7,11.081,20.778,11.081s20.778,5.541,20.778,12.467c0,15.237,205.007,138.518,332.444,199.466,738.3,351.837,1572.182,317.207,2299.4-94.192,131.592-74.8,146.829-84.5,315.822-224.4,223.013-184.229,289.5-253.488,238.251-253.488-8.312,0-6.926-11.081,2.77-27.7,15.238-23.548,13.852-30.474-2.77-41.555-12.467-8.311-13.852-13.852-4.155-13.852,8.311,0,20.777,6.926,24.932,13.852,13.852,22.163,34.631,1.385,34.631-34.63,0-16.622,11.081-36.015,23.548-40.17,19.393-8.311,20.777-12.467,5.541-22.163-11.081-5.541-15.237-20.778-11.081-31.859,4.155-12.467-1.386-24.933-13.852-29.089-15.237-5.541-38.786,11.081-72.03,49.867-281.191,333.829-696.747,615.021-1074.9,728.606-597.013,180.074-1187.1,131.592-1738.4-139.9-95.578-47.1-177.3-83.111-182.844-81.726-6.926,1.385-11.082-4.156-11.082-11.081,0-8.311-33.244-36.015-72.029-62.333-40.17-26.318-88.652-59.563-108.044-74.8-18.008-15.237-38.785-23.548-44.326-20.778-5.541,4.156-11.082-2.77-11.082-13.852,0-12.467-5.541-22.163-11.082-22.163-36.015,0-318.592-311.666-428.022-472.347-103.889-152.37-224.4-396.162-279.807-570.7L180.452-129H98.726C54.4-129,17-123.459,17-115.148Z" transform="translate(215.294 2885.878)" fill="#fc6706"/>
      <path id="Trazado_91" data-name="Trazado 91" d="M86-105.352C86-92.885,95.693-48.559,106.774-7c20.778,72.029,20.778,83.111-4.156,160.681L76.3,236.788l160.681,4.155L397.662,245.1l96.963,94.192c124.666,121.9,231.326,198.081,380.925,274.266,207.777,103.889,506.977,185.614,531.911,144.059C1413,749.306,1413,741,1406.076,741c-5.541-1.385-26.318-4.156-45.711-5.541-81.726-9.7-301.97-81.726-407.244-131.592-60.948-29.089-159.3-83.111-216.089-121.9C627.6,409.936,473.848,278.344,473.848,256.181c0-24.933,37.4-12.467,70.644,23.548C647,389.159,888.017,540.143,1073.632,609.4c164.837,62.333,220.244,74.8,214.7,49.867-2.77-9.7-63.718-38.785-137.133-63.718C987.75,540.143,857.543,470.884,724.566,369.766s-139.9-106.659-139.9-116.355c0-5.541,225.785-11.081,502.821-12.467,397.548-2.77,500.051-8.311,497.281-22.163-2.77-19.393,34.63-38.785,48.481-24.933,4.156,4.156,0,18.007-11.081,30.474-16.622,20.778-9.7,22.163,70.644,19.393,241.022-8.311,955.776,1.385,955.776,12.467,0,19.392-159.3,141.289-263.185,202.237-153.755,90.037-156.526,91.422-141.288,106.659,24.933,24.933,271.5-123.281,397.547-238.251,81.726-73.415,101.119-85.882,117.741-76.185,34.63,22.163-221.629,220.244-422.481,328.288-52.637,27.7-94.193,55.407-90.037,62.333,4.156,5.541-13.852,16.622-37.4,24.933-24.934,6.926-45.711,18.007-45.711,23.548,0,13.852,98.348-22.163,198.081-74.8,139.9-72.029,272.881-167.607,385.081-272.881l106.659-98.348h139.9c156.526,0,152.371,4.155,119.126-108.044-19.393-63.718-19.393-80.341,0-153.755,11.081-44.326,20.778-88.652,20.778-96.963,0-9.7-444.645-13.852-1523.7-13.852C227.285-127.515,86-126.13,86-105.352ZM1665.1-72.107c98.348,29.089,121.9,80.341,63.719,134.363-40.171,37.4-113.585,55.407-252.1,63.718l-102.5,5.541V77.492c0-48.481-4.156-55.407-37.4-63.718-67.874-13.852-76.185-19.393-70.644-42.941,4.156-24.933,94.193-69.259,94.193-45.711,0,6.926-8.311,13.852-19.392,13.852-29.089,0-42.941,29.089-20.778,42.941,33.244,20.778,65.1,13.852,74.8-15.237,5.541-15.237,15.237-24.933,22.163-19.393,8.311,4.156,11.082,16.622,6.926,27.7-4.156,12.467,2.77,19.393,19.393,19.393,15.237,0,27.7,5.541,27.7,13.852,0,6.926-12.467,13.852-27.7,13.852-38.785,0-38.785,63.718,1.385,76.185,67.874,22.163,234.1-24.933,260.414-73.415,30.474-56.792-63.719-95.578-241.022-101.118-77.57-2.77-80.341-2.77-27.7-12.467C1500.268-99.811,1595.845-92.885,1665.1-72.107Z" transform="translate(977.408 2887.163)" fill="#fc6706"/>
      <path id="Trazado_92" data-name="Trazado 92" d="M646.3-51.43C595.045,110.637,434.364,427.844,351.253,526.192c-40.171,48.481-40.171,55.407,0,98.348,24.933,26.318,31.859,47.1,26.318,80.341l-5.541,45.711,36.015-41.555C481.46,624.54,625.519,394.6,687.852,263.007s144.059-346.3,144.059-376.77c0-9.7-31.859-15.237-80.341-15.237H671.23Z" transform="translate(4123.856 2885.878)" fill="#fc6706"/>
      <path id="Trazado_93" data-name="Trazado 93" d="M324.848-36.863C292.989-.848,272.211,32.4,279.137,35.167S342.855,87.8,405.189,148.752L518.773,256.8l60.948-59.563c56.793-55.407,59.563-60.948,37.4-84.5-22.163-24.933-23.548-23.548-40.171,15.237-24.933,59.563-45.711,65.1-85.881,24.933l-36.015-36.015L485.53,83.648c27.7-29.089,29.088-34.63,9.7-51.252-16.622-13.852-24.933-11.081-47.1,15.237L421.811,80.878,385.8,47.633c-45.711-42.941-45.711-51.252,5.541-83.111,40.17-23.548,40.17-26.318,16.622-47.1S380.255-100.581,324.848-36.863Z" transform="translate(3567.1 3333.962)" fill="#fc6706"/>
      <path id="Trazado_94" data-name="Trazado 94" d="M220.711.037C148.681,49.9,83.578,92.844,75.266,95.614,68.341,97,73.881,113.622,87.733,128.859c24.933,29.089,27.7,29.089,44.326,5.541,13.852-18.007,23.548-20.778,41.556-8.311,34.63,20.778,38.785,40.17,13.852,65.1-18.007,18.007-18.007,22.163,4.156,42.941,23.548,20.778,30.474,15.237,120.511-112.2,52.637-74.8,98.348-139.9,101.118-146.829C417.407-37.363,374.466-90,360.614-90,356.459-90,292.74-48.445,220.711.037Z" transform="translate(925.804 3387.099)" fill="#fc6706"/>
      <path id="Trazado_95" data-name="Trazado 95" d="M325.563-33.133,266,15.348l80.341,92.807c42.94,51.252,92.807,110.815,109.429,131.592,26.318,34.63,34.63,37.4,60.948,23.548,29.089-16.622,29.089-16.622-23.548-72.03l-54.022-54.022L477.933,104c20.778-18.007,37.4-42.941,37.4-55.407C515.333,16.733,432.222-83,405.9-83,393.437-83,357.422-60.837,325.563-33.133Z" transform="translate(3415.4 3477.062)" fill="#fc6706"/>
      <path id="Trazado_96" data-name="Trazado 96" d="M182.6,24.387C132.729,89.49,91.174,153.209,88.4,167.061c-5.541,30.474,95.578,116.355,124.667,105.274,9.7-4.155,31.859-27.7,48.481-52.637,47.1-66.489,168.992-199.466,170.377-181.459,0,6.926-6.926,20.778-16.622,30.474-12.467,12.467-9.7,16.622,13.852,16.622,45.711,0,37.4,29.089-45.711,157.911-70.644,110.815-74.8,119.126-49.867,132.978,33.244,16.622,42.941,18.007,42.941,1.385,0-15.237,117.74-207.777,139.9-228.555,9.7-11.082,19.393-8.311,33.244,9.7,18.007,24.933,19.393,24.933,33.244-1.385,12.467-23.548,1.385-34.63-95.578-98.348C427.773,20.231,376.521-11.628,373.751-11.628S330.81,38.239,286.484,99.187c-83.111,112.2-102.5,126.052-130.207,91.422-12.467-15.237,2.77-42.941,74.8-131.592,49.867-62.333,90.037-114.97,90.037-119.126,0-2.77-11.082-11.081-23.548-18.007C276.788-89.2,256.01-71.191,182.6,24.387Z" transform="translate(1130.141 3502.652)" fill="#fc6706"/>
      <path id="Trazado_97" data-name="Trazado 97" d="M305.563-31.985C272.319-12.593,246,8.185,246,15.111c0,15.237,134.363,249.333,153.755,268.725,16.622,18.007,134.363-38.785,146.829-69.259,4.156-12.467,1.385-33.244-6.926-45.711-9.7-12.467-23.548-37.4-30.474-55.407C495.333,82.985,491.178,81.6,473.17,99.607c-16.622,16.622-16.622,29.089-4.156,66.489s12.467,48.481-2.77,58.178c-11.082,6.926-22.163,12.467-26.319,12.467-9.7,0-124.666-203.622-124.666-220.244,0-31.859,49.867-29.089,76.185,4.156,33.244,41.555,42.941,44.326,54.022,15.237C455.163,8.185,410.837-68,384.518-68,373.437-68,337.422-51.378,305.563-31.985Z" transform="translate(3158.363 3669.84)" fill="#fc6706"/>
      <path id="Trazado_98" data-name="Trazado 98" d="M237.738-43.5c0,11.081-30.474,83.111-67.874,157.911-52.637,108.044-62.333,138.518-47.1,144.059,36.015,13.852,42.941,9.7,69.259-54.022,24.933-60.948,37.4-70.644,78.955-54.022,18.007,6.926,16.622,18.007-13.852,77.57-29.089,56.792-31.859,72.029-16.622,81.726,9.7,6.926,22.163,11.081,27.7,8.311,5.541-1.385,44.326-70.644,84.5-152.37C421.967,24.378,424.738,14.682,399.8,2.215c-30.474-18.007-26.318-22.163-62.333,60.948-26.318,59.563-31.859,65.1-58.178,51.252-34.63-18.007-34.63-29.089,1.385-99.733,23.548-45.711,24.933-58.178,9.7-67.874C261.286-72.585,237.738-67.044,237.738-43.5Z" transform="translate(1490.554 3709.053)" fill="#fc6706"/>
      <path id="Trazado_99" data-name="Trazado 99" d="M290.278-38.577,232.1-12.259,294.433,129.03c33.244,78.955,60.948,150.985,60.948,162.066s5.541,18.007,11.081,15.237,42.941-16.622,83.111-31.859c49.867-18.007,70.645-33.244,65.1-45.711-4.155-9.7-6.926-24.933-6.926-33.244,0-6.926-16.622,0-36.015,15.237-49.867,40.17-69.259,36.015-87.267-13.852-18.008-51.252-9.7-67.874,29.089-67.874,19.393,0,24.933-6.926,19.393-22.163-4.156-12.467-8.311-23.548-8.311-27.7,0-2.77-16.622,1.385-37.4,9.7C344.3,105.482,331.833,94.4,319.367,36.223c-8.311-38.785-4.156-45.711,26.318-52.637,19.393-5.541,42.941-5.541,51.252,0,11.081,6.926,15.237,1.385,11.081-15.237C401.092-67.666,359.537-70.437,290.278-38.577Z" transform="translate(2979.722 3763.698)" fill="#fc6706"/>
      <path id="Trazado_100" data-name="Trazado 100" d="M188.422,104.266,134.4,267.718l72.029,24.933c74.8,24.933,102.5,20.778,102.5-16.622,0-12.467-8.311-18.007-20.778-12.467-11.081,4.156-36.015,1.385-54.022-5.541-31.859-11.081-33.245-15.237-19.393-60.948,15.237-48.481,54.022-67.874,73.415-36.015,11.081,18.007,34.63,4.156,34.63-20.778,0-9.7-16.622-22.163-36.015-26.319-30.474-8.311-34.63-15.237-26.319-47.1,15.237-65.1,38.785-77.57,80.341-44.326l36.015,29.089,15.237-29.089c11.081-20.778,11.081-29.089-2.77-33.244-9.7-2.77-47.1-15.237-83.111-26.318L241.059-57.8Z" transform="translate(1724.099 3800.928)" fill="#fc6706"/>
      <path id="Trazado_101" data-name="Trazado 101" d="M283.489-35.1C246.089-24.015,217-8.778,217-3.237c0,6.926,16.622,73.415,36.015,149.6,20.778,74.8,37.4,144.059,37.4,152.37,0,19.393,22.163,23.548,55.407,9.7,16.622-5.541,16.622-15.237,1.385-58.178-22.163-60.948-23.548-99.733-6.926-99.733,15.237,0,60.948,62.333,74.8,99.733,5.54,15.237,23.548,24.933,44.326,24.933,42.941,0,42.941-1.385,0-67.874-24.933-36.015-37.4-77.57-41.556-130.207-5.541-84.5-26.318-134.363-52.637-132.978C355.518-55.874,319.5-46.178,283.489-35.1Z" transform="translate(2785.66 3825.32)" fill="#fc6706"/>
      <path id="Trazado_102" data-name="Trazado 102" d="M208.433-42.658c6.926,11.081-36.015,249.333-55.407,310.281-5.541,19.393,1.385,24.933,30.474,24.933,20.778,0,34.63-2.77,31.859-6.926-12.467-11.081,23.548-193.926,37.4-191.155,6.926,2.77,13.852,45.711,16.622,96.963,4.156,116.355,8.311,128.822,41.556,128.822,23.548,0,30.474-20.778,51.252-145.444C376.04,94.475,395.433,18.29,405.129,4.438c16.622-20.778,18.007-20.778,19.393,8.311,0,26.318,5.541,30.474,27.7,23.548,26.319-8.311,27.7-2.77,26.319,78.955,0,48.481-5.541,116.355-11.081,152.37-11.082,65.1-9.7,66.489,24.933,66.489H528.41l4.155-141.289c2.771-77.57,8.311-146.829,11.082-152.37,4.156-5.541,19.392-4.155,34.63,2.77C599.055,55.69,604.6,52.92,604.6,36.3c0-11.081,6.926-20.778,15.237-20.778,9.7,0,12.466,54.022,9.7,159.3l-4.156,159.3h69.259v-346.3H611.521c-45.711,0-124.666-4.156-174.533-8.311l-91.422-9.7-9.7,85.881c-12.467,114.97-42.941,108.044-41.556-9.7,0-73.415-2.77-84.5-27.7-91.422C223.67-56.51,200.122-55.125,208.433-42.658Z" transform="translate(1940.954 3863.356)" fill="#fc6706"/>
      <path id="Trazado_103" data-name="Trazado 103" d="M221.923-40.657c-31.859,12.467-31.859,13.852-22.163,146.829,5.541,74.8,15.237,149.6,22.163,167.607,11.081,29.089,18.007,31.859,77.57,23.548,105.274-13.852,105.274-13.852,96.963-84.5-8.311-73.415-15.237-84.5-44.326-60.948-12.467,11.081-18.007,29.089-12.467,48.481,5.541,23.548,0,36.015-20.778,48.481-24.933,12.467-30.474,11.081-41.555-16.622-5.541-18.007-15.237-73.415-20.778-123.281C249.626,36.913,252.4,13.365,267.634-.487,293.952-21.265,317.5-7.413,317.5,31.372c0,52.637,19.393,69.259,44.326,41.556C378.448,54.92,382.6,35.528,374.293-.487c-8.311-45.711-13.852-48.481-63.718-49.867C280.1-51.739,239.93-47.583,221.923-40.657Z" transform="translate(2491.234 3893.215)" fill="#fc6706"/>
    </g>
    <g id="Grupo_8" data-name="Grupo 8" transform="translate(5598.998 796.552)">
      <g id="layer1" transform="translate(-4660.998 4836.481) rotate(-14)">
        <g id="g3878" transform="translate(0 0)">
          <path id="path3052" d="M.01,596.977s20.976-105.7,26.536-159.215C38.3,324.642,24.65,146.491,40.834,96.869,68.4,12.378,130.869-8.122,195.857,2.625c78.9,13.047,273.817,44.489,383.854,55.461,253.579,25.281,508.933,27.47,763.427,40.823,92.531,4.856,184.967,12.523,277.607,14.289,255.81,4.877,598.214-11.525,767.513-10.206,62.066.483,128.985,54.305,130.638,132.68,2.174,102.915-102.061,153.091-102.061,153.091s-38.027-53.132-87.772-71.442c-56.7-20.869-103.734,23.878-308.231,22.454-137.166-.955-295.552-85.274-408.26-44.907C1492.6,337.837,1420.7,625.545,1420.7,625.545s-617.638,30.264-926.233,18.669C329.007,638,0,596.967,0,596.967Z" fill="url(#linear-gradient)"/>
          <path id="path3822" d="M738.911.046C560.867.744,245.008,14.8,5.18,10.227c-1.722-.035-3.458-.142-5.18-.178V190.979c112.506-37.853,269.3,44.954,405.265,45.9,204.495,1.424,251.578-43.373,308.288-22.5,49.746,18.31,87.7,71.442,87.7,71.442s104.16-50.152,101.985-153.066C901.58,54.38,834.737.53,772.671.049c-10.58-.082-21.887-.046-33.756,0Z" transform="translate(1615.611 102.972)"/>
          <path id="path3827" d="M63.278,31.641A31.639,31.639,0,1,1,31.639,0,31.638,31.638,0,0,1,63.278,31.641Z" transform="translate(1736.038 170.349)" fill="url(#radial-gradient)"/>
          <path id="path3857" d="M63.278,31.641A31.639,31.639,0,1,1,31.639,0,31.638,31.638,0,0,1,63.278,31.641Z" transform="translate(2042.227 170.349)" fill="url(#radial-gradient)"/>
          <path id="path3865" d="M14.467,0C7.3,41.413,0,78.769,0,78.769S328.942,119.7,494.379,125.92c308.6,11.594,926.261-18.575,926.261-18.575s9.316-36.72,26.434-85.553c-67.831,3.007-658.836,28.444-972.161,17.5C346.146,34.8,126.855,12.226,14.456,0Z" transform="translate(0.096 518.272)" fill="#f2f2f2" opacity="0.509"/>
        </g>
      </g>
      <g id="Grupo_6" data-name="Grupo 6" transform="translate(-3093.3 3334)">
        <g id="Grupo_5" data-name="Grupo 5" transform="translate(0 0)">
          <g id="Grupo_1" data-name="Grupo 1" transform="translate(0 0)">
            <path id="Unión_2" data-name="Unión 2" d="M892.859,2676.7s-154.8-39.642-173.678-20.764-54.747,20.764-54.747,20.764l-83.065-20.764-71.737-33.98s-9.719-13.366-90.617-114.238c-26.034-25.962-35.759-36.246-41.85-42.685l-.015-.022,0,0c-5.464-5.776-7.723-8.168-16.575-16.281-5.747-5.269-21.969-30.684-43.39-67.989-23.935-41.682-50.849-92.038-75.779-141.792-30.159-60.193-56.978-118.647-77.546-169.048-24.908-61.023-41.292-111.409-48.7-149.758-16.579-85.814-41.358-275.269-59.23-419.093-19.323-155.534-35-293.126-35.16-294.5L0,627,52.859,483.529l181.228-67.96,179.343-28.318,207.658,28.318c.026.015,2.447,1.642,8.264,17.236,5.383,14.425,14.866,44.107,29.494,103.586h58.517c5.14,0,8.2-.959,9.619-3.017,2.274-3.292.026-9.245-2.822-16.781-2.675-7.08-6-15.891-6.8-25.606-2.025-24.882-.889-54.259-.062-75.709.577-14.925.992-25.694.063-28.028-1.914-4.784,4.354-32.576,11.615-64.752,6.956-30.835,14.837-65.778,16.7-86.262,1.951-21.454-1.231-50.6-4.247-71.267-3.255-22.336-7.04-39.94-7.077-40.116a34.478,34.478,0,0,1-.294-9.674c.481-5.6,2.238-14.525,7.845-25.25,6.3-12.055,16.086-23.887,29.082-35.16C787.23,40.678,808.567,27.421,834.4,15.362c11.332-5.287,25.232-9.256,41.31-11.8A334.046,334.046,0,0,1,927.2,0c38.4,0,85.369,4.674,143.592,14.293,50.643,8.366,102.69,19.29,148.611,28.928,59.44,12.474,110.77,23.247,141.7,25,23.472,1.33,54.027,14.429,90.822,38.937,31.853,21.216,68.581,51.323,106.217,87.074,67.5,64.113,133.973,142.71,161.648,191.138a213.22,213.22,0,0,1,24.658,65.869,197.529,197.529,0,0,1,2.715,54.718c-2.8,31.055-12.177,51.007-12.272,51.205L1704.685,581.7c-.033.61-3.3,64.268-3.068,132.382.14,40.146,1.44,74.118,3.865,100.97,3.035,33.565,7.848,56.044,14.308,66.81,20.488,34.149,49.291,38.529,72.1,38.529,5.078,0,9.9-.213,14.569-.419,4.079-.184,7.933-.353,11.5-.353,6.03,0,14.444,3.274,25.015,9.733a264.047,264.047,0,0,1,29.259,21.414c18.478,15.241,33.811,30.5,34.454,31.147l228.425,149.14c0,.114-.441,11.412,6.606,30.677A186.681,186.681,0,0,0,2159,1196.361a289.652,289.652,0,0,0,34.63,44.187c30.816,32.738,76.569,86.629,119.4,140.642,49.056,61.854,86.431,113.812,105.243,146.3,9.472,16.362,17.652,41.531,24.306,74.805,5.324,26.62,9.689,58.455,12.978,94.628,5.6,61.53,6.132,115.094,6.136,115.627l-17.709-.871c8.615,302.691-359.06,642.589-878.464,791.525-126.573,36.291-251.591,58.2-370.393,66.792l22.432,6.7ZM688.137,785.014c-17.593,33.921-31.088,63.059-31.224,63.349l-82.771,130.7c-.606.636-15,15.675-33.036,31.768-16.894,15.072-40.495,34.138-57,39.389-31.775,10.112-111.02,46.105-111.817,46.469l63.9,267.2,90.035,135.05h33.4l116.171-236.7L693.219,1178l58.087-117.622,66.8-69.706,58.087-40.66V859.981l-130.7-169.9C727.493,711.833,704.367,753.713,688.137,785.014Z" transform="translate(15.247 633.94)" fill="#ee8f6f" stroke="#707070" stroke-width="1"/>
            <g id="Ricardo_Recortado">
              <path id="Trazado_23" data-name="Trazado 23" d="M1634.095-1404.528c-21.229,10.206-39.6,22.046-43.684,28.578-6.532,9.8-6.532,11.023.817,18.78,9.8,11.023,27.353,19.6,40.009,19.6,8.982,0,10.207,1.633,10.207,15.513,0,8.165,3.674,25.312,8.165,37.56s8.165,22.862,8.165,23.27,5.716,3.675,12.248,7.349c6.94,3.674,12.248,9.39,12.248,12.656,0,3.674-20.821,28.17-45.725,54.3-65.321,67.771-92.674,106.964-117.578,170.243-18.372,45.725-22.862,61.239-28.578,93.491-2.449,15.514-7.757,39.6-11.431,53.073-4.9,17.964-6.532,40.826-6.532,87.776.408,79.61,5.308,124.927,15.922,140.849,7.349,10.615,8.165,18.78,7.757,81.651,0,55.523-1.633,72.67-6.94,85.326-15.106,34.7-19.6,67.362-18.78,141.257l.408,71.445-17.964,1.225c-24.5,1.225-28.986-2.857-32.252-30.619-7.757-64.1-11.023-76.344-24.087-88.184-9.39-8.165-16.739-11.023-28.986-11.023-9.39,0-23.679-1.633-31.844-3.675s-25.312-6.124-38.376-8.981-24.5-6.533-25.72-8.574c-1.225-1.632-8.982-3.266-17.555-3.266-8.165,0-17.147-2.041-19.6-4.491-2.857-2.858-22.862-3.674-56.748-2.858L1125-421.036l-26.128,15.922c-25.312,15.513-26.945,15.921-44.092,11.431-28.986-7.757-39.6-6.124-65.729,11.432-13.472,8.981-27.761,16.33-32.252,16.33s-17.147,3.674-28.17,7.757-27.353,9.389-36.335,11.839-23.679,6.124-32.661,8.574c-8.982,2.041-21.638,5.307-27.761,6.532-20,4.083-51.032,36.743-57.973,60.83-24.5,85.325-24.087,80.835-18.78,200.454,2.45,60.422,5.715,142.482,6.532,181.675C765.731,259.529,777.162,476.314,784.1,530.2c5.307,42.867,11.84,122.477,15.514,185.757,1.633,28.169,5.307,55.115,8.165,60.014,2.45,4.9,4.9,15.105,4.9,22.862s2.45,29.395,5.716,48.174S826.153,896,828.6,913.966c8.982,62.056,26.537,153.5,37.151,191.881,4.083,15.514,9.8,39.6,12.248,53.073,4.9,26.537,31.844,115.945,36.743,122.477,1.633,2.041,5.307,11.431,8.165,20.413s6.532,17.963,8.165,20.413c1.633,2.041,7.349,16.739,12.248,32.661,4.9,15.514,10.615,30.211,12.248,32.661,1.633,2.041,7.349,16.738,12.248,32.661,5.307,15.514,12.656,33.477,17.147,39.6,4.083,6.124,9.8,17.147,12.248,24.5s8.573,20,13.472,27.761c13.064,21.638,16.739,28.578,33.069,57.156,26.128,46.949,59.605,90.633,100.431,133.092,22.046,22.863,40.009,44.092,40.009,46.95.408,11.023,65.321,34.294,65.321,23.679,0-2.449-7.757-13.881-17.147-25.72-36.743-44.092-86.959-102.473-89.817-103.7a5.759,5.759,0,0,1-3.266-4.9c0-2.041-4.9-10.615-10.615-19.188-12.656-18.78-78.385-152.688-91.45-186.982-20-52.257-24.087-63.28-48.991-122.477-13.88-33.885-27.761-66.954-31.027-73.486-5.307-12.656-10.615-26.945-26.129-71.445-4.9-14.7-10.615-28.17-12.656-30.619-2.041-2.041-3.674-6.94-3.674-10.615,0-4.083-5.307-21.638-11.839-39.193s-13.881-43.684-16.33-58.381c-8.165-48.583-28.17-177.184-30.619-198.005-1.633-11.431-7.349-48.174-12.656-81.651-17.963-113.5-40.826-308.234-45.316-387.844-1.633-26.945-3.266-159.221-3.674-293.945l-1.225-244.955,14.7-48.175c10.615-34.294,17.555-49.807,23.271-53.073,4.491-2.449,23.679-8.165,42.867-13.064,40.009-10.206,95.532-26.129,110.23-31.436,5.716-2.041,16.739-8.982,24.5-15.922,13.064-11.431,15.514-12.248,32.66-9.39,32.661,5.716,42.459,3.674,70.629-13.881,14.7-9.389,37.968-20,51.032-23.678,22.454-6.124,27.762-6.124,70.629,0,62.463,8.981,146.156,25.312,150.239,29.394,1.225.817,6.94,25.312,12.656,53.89,9.8,50.624,11.431,82.468,4.083,82.468-10.207,0-51.032,31.435-62.463,47.766l-13.064,18.371-4.083-17.963c-2.449-9.389-6.532-21.637-9.39-26.537-7.757-13.88-6.124-25.72,3.266-25.72,12.248,0,36.743-11.023,36.743-16.331,0-3.266-7.757-4.083-26.537-2.041-24.087,2.858-26.537,2.45-26.537-4.491,0-7.757,29.8-30.211,50.624-38.376,6.124-2.041,10.615-6.94,10.615-10.615,0-4.491-2.041-5.716-6.94-3.674a194.266,194.266,0,0,1-19.6,4.9,129.292,129.292,0,0,0-25.72,10.206c-7.349,4.083-14.7,7.349-16.738,7.349s-11.023-7.349-20-16.33c-25.72-26.129-40.009-20.821-24.5,8.982,6.94,12.656,9.39,24.5,9.39,44.092,0,15.106,5.307,46.542,12.248,74.3,12.248,49.4,12.248,65.321-.408,124.518-2.041,11.84-1.633,13.473,5.715,13.473,11.023,0,31.028-31.844,42.459-68.179,8.165-26.128,11.023-29.8,27.761-40.417,10.207-6.533,20-12.657,22.454-13.473,12.248-5.308,55.115-62.872,61.647-82.876,2.449-7.757,4.49-8.165,24.9-5.715,25.72,2.858,52.257,15.106,58.381,26.945,6.532,12.656-3.674,59.2-18.78,83.693-16.33,26.945-28.17,48.583-40.826,75.528-43.275,91.041-97.165,196.78-111.454,218.418-25.312,38.376-64.913,69-133.908,103.7-65.729,33.069-61.647,32.661-71.445,8.574-6.124-14.7-10.615-20.413-16.739-20.413-7.349,0-7.757,1.633-5.307,21.229,1.633,11.839,4.491,23.271,6.124,25.72,2.041,2.041,4.491,9.39,5.716,16.33.816,6.532,7.757,33.477,14.289,59.606,6.94,26.129,19.188,77.569,27.353,114.312,17.964,82.06,19.188,86.551,41.234,132.275,20,41.642,24.5,49.4,51.848,91.042,10.615,16.33,19.188,31.436,19.188,33.477,0,2.449,3.675,6.124,8.165,8.982s8.165,6.532,8.165,8.573c0,1.633,15.514,27.353,34.294,57.156,18.78,29.395,40.826,68.587,49.4,86.551,26.945,57.156,59.2,100.84,142.482,193.922,48.582,53.89,101.656,141.665,111.862,183.716,16.33,68.179,26.128,137.991,24.5,179.225-.816,22.863.817,29.8,8.574,40.417,10.615,15.514,18.371,16.33,25.72,3.675,8.165-13.881,6.532-147.381-2.449-184.532-12.248-51.849-42.459-124.11-56.748-135.95-11.023-9.39-11.84-26.945-2.858-64.5,7.757-33.885,31.436-86.55,50.216-113.5,42.459-59.2,118.4-124.11,184.125-157.179,76.344-37.968,138.807-60.422,147.789-53.073,9.8,7.757,23.679,2.45,27.761-10.615,26.945-87.367,82.468-170.652,149.014-223.317,53.89-43.275,159.629-88.183,222.908-95.124,15.922-2.041,32.252-3.674,36.743-4.491,29.4-4.491,92.266-5.715,128.6-2.449,45.725,4.083,57.156,2.041,57.156-11.431,0-9.8-17.147-15.106-65.322-20-164.528-16.33-297.619,14.7-399.684,94.308-61.239,47.766-119.619,130.642-145.748,207.395-9.39,28.578-12.656,32.661-25.312,32.661-9.8,0-26.537,4.9-90.634,25.312-91.858,29.8-187.8,95.124-240.464,164.528-30.619,39.6-61.647,106.963-68.179,148.605-1.633,9.39-4.083,16.739-6.124,16.739s-3.675-1.225-3.675-3.266c0-1.633-9.8-15.106-21.229-30.211-11.839-14.7-28.986-36.743-37.968-48.174-8.982-11.84-24.5-31.844-35.11-44.5-27.762-34.7-44.909-62.463-73.078-120.028-14.29-28.578-26.945-51.849-28.987-51.849-1.633,0-4.491-4.083-5.716-8.982-1.633-4.491-13.064-23.271-25.72-41.234-25.72-37.152-25.72-33.886-1.225-92.674,16.739-39.6,66.954-148.2,69.812-151.055,1.225-1.225,7.349-12.248,13.881-24.5,16.331-30.619,33.477-53.073,51.849-67.362,19.188-15.106,21.638-28.17,4.9-24.087-6.532,1.633-17.555,7.349-25.312,12.248-7.757,5.307-14.7,8.982-15.514,8.165-3.675-3.674,56.748-124.927,71.854-145.34,6.124-7.757,13.88-18.78,17.555-24.5,10.206-16.33,69.4-77.569,75.119-77.569,2.449,0,6.94,5.307,8.981,11.84,2.45,6.94,11.431,20,20.413,29.8l16.33,17.555-.408,38.784c-.408,35.11,3.266,55.931,13.472,79.61,2.041,4.491,7.757,17.147,12.656,28.578,12.248,27.761,40.009,69.4,64.5,95.124,20,21.638,20,22.046,17.963,43.275-6.532,63.688,65.729,76.753,101.656,18.372,6.94-11.023,15.105-20,18.372-20,2.857,0,28.169-13.064,56.339-28.578,28.17-15.922,51.849-28.578,53.073-28.578,6.941,0,129.418-80.019,171.06-111.454,43.683-33.069,48.175-35.518,45.725-24.9-1.633,6.124-6.532,15.922-11.023,21.229-4.083,5.715-7.757,11.431-7.757,13.472,0,1.633-5.716,13.064-13.064,24.9-17.147,28.578-63.688,74.711-78.794,78.385-6.94,1.633-24.087,6.124-38.784,10.615-28.578,8.165-90.225,22.454-115.537,26.537-16.33,2.449-24.087,12.656-14.7,19.188,7.757,4.9,126.969.408,168.2-6.94,59.2-10.206,93.082-39.6,122.885-107.372,12.656-28.986,20.821-55.931,29.394-96.757,4.9-24.087,8.166-30.619,20.822-42.459,8.573-7.757,27.761-25.312,42.867-39.193,15.105-13.472,34.293-33.885,42.867-44.908,8.165-11.432,17.147-22.454,19.6-24.5a214.069,214.069,0,0,0,15.106-18.372c5.715-7.757,17.963-22.454,27.353-32.661s20.821-24.5,26.128-31.436c10.615-15.922,15.105-17.146,15.105-4.491.408,15.922,18.372,45.725,32.661,53.89,10.615,6.124,21.638,8.165,48.583,8.573,42.051.408,51.44,4.491,104.922,47.766,20.821,16.739,65.321,47.766,99.615,69,75.528,46.541,126.152,86.551,135.133,105.739a356.8,356.8,0,0,1,13.472,35.11c10.206,32.661,34.7,71.037,61.239,95.532,95.124,87.775,129.826,126.968,166.569,186.982,35.11,57.156,50.624,111.046,64.5,223.317,10.615,86.551,16.739,125.743,20,129.418,1.225,1.633,6.532,2.041,11.432.816,6.94-2.041,8.165-4.9,7.348-17.146-.817-8.574-3.266-44.5-5.716-80.427-6.124-86.142-10.615-122.886-18.371-144.931-3.674-10.206-6.532-24.087-6.532-30.619,0-11.431-10.615-35.927-25.312-59.2a91.03,91.03,0,0,1-9.39-20.413c-1.633-5.307-10.206-19.6-18.78-31.028-8.981-11.431-15.922-22.454-15.922-24.087,0-2.041-6.94-11.839-15.513-22.046-8.982-10.207-19.188-25.312-22.863-33.886-4.083-8.165-40.417-47.766-82.468-89-47.358-46.541-75.936-77.977-77.569-84.917-6.94-28.987-32.661-71.853-55.523-93.083-12.248-11.432-53.481-38.376-58.381-38.376-1.224,0-8.981-4.491-17.554-9.39-8.165-5.308-26.129-15.922-39.6-23.271q-65.525-36.131-109-75.936c-38.784-35.927-64.1-46.541-109.413-46.541-31.027,0-40.009-6.124-48.991-33.886-4.9-15.922-4.083-68.179,1.633-80.835,1.633-4.083-1.633-11.84-9.8-22.046l-12.248-15.514V-190.37l14.7-16.33c15.514-17.147,42.459-66.138,42.459-77.161,0-7.757,10.615-38.785,17.147-51.033,2.449-4.9,6.124-15.922,8.165-24.9,9.389-46.95,15.513-82.876,15.513-93.9,0-6.941,4.491-19.188,9.8-26.945,14.7-21.23,16.739-33.478,8.573-49.4-21.637-42.458-23.27-69.812-4.9-93.9,15.106-19.6,35.519-60.83,35.519-71.854,0-3.674,5.715-17.963,12.248-31.435s12.248-27.762,12.248-31.844S2657.6-775,2662.5-785.2c7.757-16.738,8.165-23.678,6.124-80.018-.816-34.294-3.674-73.895-6.124-88.592-2.857-14.7-7.349-53.89-11.023-87.367-4.083-41.642-8.573-66.138-13.88-77.161-4.491-9.39-8.165-18.78-8.165-21.229,0-2.858-7.349-15.106-16.33-27.761-8.982-12.248-16.331-23.679-16.331-24.9,0-4.083-25.312-39.6-37.967-53.073-11.432-11.84-18.781-14.7-62.056-24.5-26.945-5.716-54.3-12.248-61.239-14.289-6.532-2.042-30.619-7.757-53.073-12.656-80.835-17.555-144.932-36.335-180.042-53.481-13.473-6.533-28.17-11.84-32.661-11.84-4.083,0-12.656-2.858-19.188-5.716-45.317-24.087-115.946-24.087-161.262-.816-9.8,4.9-25.312,6.532-67.362,6.532-77.161,0-92.675-3.675-119.211-27.762-25.312-23.27-40.418-28.17-94.716-31.027l-37.152-2.041Zm364.574,69.4c0,8.981-13.064,12.656-20,5.716-3.266-3.266-2.45-6.124,3.674-10.615C1992.136-1347.372,1998.668-1345.331,1998.668-1335.125Zm-30.619,13.881c7.349,4.491,1.225,17.555-9.8,19.6-8.573,1.633-13.064-9.8-6.532-17.555C1957.435-1326.143,1959.884-1326.551,1968.049-1321.244Zm53.074,4.083c7.349,4.491,1.225,17.555-9.8,19.6-8.574,1.633-13.064-9.8-6.532-17.555C2010.508-1322.061,2012.958-1322.469,2021.123-1317.161Zm-29.395,29.394c-1.225,10.615-14.7,15.106-20,6.941-4.083-6.941,3.266-15.922,13.473-15.922C1990.912-1296.748,1992.953-1294.3,1991.729-1287.767Zm269.858,17.555c6.532,3.266,12.656,8.573,14.289,12.248,2.449,6.532-6.94,17.964-20.413,25.72-6.124,3.674-7.757,8.573-6.94,25.72.408,11.84-1.225,24.087-3.675,26.945-5.716,6.94-33.478,6.94-48.175-.817-12.248-6.532-28.578-29.395-28.578-40.417,0-13.064,16.739-39.6,29.8-47.358C2213.821-1277.969,2245.256-1278.785,2261.586-1270.212ZM1859.453-1180.4c16.738,8.165,31.435,33.069,28.578,48.583-2.449,14.7-17.146,34.293-31.028,41.642-23.679,12.248-66.546,4.083-76.752-14.289-5.716-11.432-5.716-11.84,12.248-20.821,8.982-4.491,16.739-10.615,16.739-13.473a196.415,196.415,0,0,0,1.225-22.454c.817-10.207,3.266-19.188,6.94-21.638C1825.976-1188.152,1844.756-1187.336,1859.453-1180.4Zm-197.6,26.129c0,9.39-6.532,14.7-10.207,8.573-3.674-5.715.409-16.33,6.124-16.33C1659.815-1162.024,1661.856-1158.349,1661.856-1154.266Zm839.786,11.023c1.224,3.266-.409,8.981-4.083,12.656-5.716,5.716-6.533,5.308-10.615-2.449-2.857-4.9-3.674-10.615-2.449-12.656C2488.578-1151.817,2498.784-1150.592,2501.642-1143.244Zm-32.252,8.981c1.224,7.757-.408,9.39-6.124,8.165-4.083-.816-7.757-5.715-8.573-10.615-1.225-7.757.408-9.39,6.124-8.165C2464.9-1144.06,2468.573-1139.161,2469.39-1134.262Zm-844.277,2.45c0,3.266-1.633,6.94-3.674,8.574-4.9,2.858-9.8-4.9-6.532-10.206C1618.581-1139.569,1625.113-1138.345,1625.113-1131.812Zm28.578,4.491c0,6.532-11.023,13.064-15.105,8.981-1.225-1.633-1.225-5.307,0-8.981C1641.852-1135.486,1653.691-1135.486,1653.691-1127.321Zm854.891,16.738c2.858,7.757-.408,13.881-7.757,13.881-6.124,0-11.431-11.023-7.757-16.739S2505.725-1117.523,2508.582-1110.583Zm-32.252,7.757c0,11.431-11.84,10.206-13.472-1.225-1.225-7.757,0-9.39,6.124-8.165A9.672,9.672,0,0,1,2476.33-1102.826Zm-327.014-3.674c9.39,3.674,8.165,17.964-1.225,17.964-10.615,0-17.963-9.39-11.839-15.514C2141.967-1109.767,2141.151-1109.767,2149.316-1106.5Zm45.316,16.33c8.982,8.981.817,19.6-10.615,13.473-7.757-4.083-10.207-12.248-4.9-17.147C2183.2-1098.335,2187.284-1097.11,2194.632-1090.17Zm-47.766,19.188a8.541,8.541,0,0,1-5.308,9.39c-8.165,3.266-20.413-7.757-16.33-14.7S2145.233-1079.556,2146.866-1070.982Zm40.826,14.289c1.224,8.165,0,9.39-8.165,8.165-6.124-.816-9.8-4.491-10.615-10.615-1.225-8.165,0-9.389,8.165-8.165C2183.2-1066.491,2186.875-1062.817,2187.692-1056.693Zm-593.606,62.872c2.858,4.9,3.266,8.982.408,13.065-20.413,27.761-19.6,24.9-12.248,47.358,3.675,11.431,6.124,21.229,5.716,22.046-21.229,15.922-38.376,18.78-57.973,9.39-10.207-4.491-18.372-17.147-13.881-21.638.816-.817,8.165,1.225,16.33,4.491,28.987,11.84,48.583,5.307,36.743-13.064-7.348-11.023-4.9-35.11,4.9-46.133,3.266-3.675,6.124-8.165,6.124-9.39,0-4.491-23.271-3.266-34.7,2.041-13.472,6.124-17.555,1.633-8.165-8.981,6.532-6.941,11.84-8.165,29.8-7.349C1583.063-1001.17,1590.82-998.72,1594.086-993.822Zm901.841,8.982c7.348,2.857,17.964,11.023,24.087,17.146,15.105,16.33,11.839,28.578-8.574,31.844-16.739,2.449-23.678,8.981-34.293,31.844-8.165,18.371-16.739,19.6-37.56,6.124-17.963-11.84-28.578-34.294-24.9-53.89C2420.4-981.982,2462.449-999.128,2495.927-984.839Zm-707.51,12.656c0,11.023-10.615,16.33-18.78,9.8-6.94-5.716-7.349-12.657-1.225-18.78C1775.352-988.106,1788.416-982.39,1788.416-972.184Zm42.867,2.041c0,7.349-2.449,10.615-9.39,11.431-9.8,1.633-15.514-7.349-11.431-17.963,1.225-3.675,6.124-5.716,11.431-4.9C1828.834-980.757,1831.283-977.491,1831.283-970.142Zm-47.766,32.252c1.633,11.839-6.124,17.555-16.33,12.248-8.573-4.491-9.39-12.248-2.449-19.189C1772.494-952.587,1782.292-948.913,1783.517-937.89ZM1827.2-933.4c0,7.349-2.449,10.615-9.39,11.431-9.8,1.633-15.514-7.349-11.431-17.963,1.225-3.674,6.124-5.716,11.431-4.9C1824.751-944.014,1827.2-940.748,1827.2-933.4Zm316.4,20c14.289,17.146,15.514,33.477,4.083,52.665a61.872,61.872,0,0,1-52.257,29.4c-30.211,0-57.156-20.821-45.317-35.11,2.45-3.266,6.94-5.716,9.8-5.716,9.8,0,17.963-14.7,19.188-34.7.816-16.33,2.858-21.229,10.615-24.9C2104.816-939.115,2129.311-930.95,2143.6-913.395ZM2386.513-776.22c0,12.656-20,11.431-21.638-1.225-1.225-8.165,0-9.389,10.207-8.165C2383.247-784.793,2386.513-782.344,2386.513-776.22Zm33.885,13.881c8.573,5.307,4.083,18.78-6.532,20-9.8,1.633-15.514-7.348-11.431-17.555C2404.885-766.831,2412.234-767.647,2420.4-762.339Zm-51.032,13.064c2.858,11.023-6.532,17.555-17.147,11.84-9.39-4.9-11.023-12.248-4.083-19.189C2354.261-762.748,2366.917-758.665,2369.366-749.275Zm-546.248,14.289c15.922,3.266,36.743,7.757,46.949,10.206,10.206,2.041,27.762,6.532,38.784,9.8,11.431,3.266,39.6,10.615,63.28,16.33,53.074,12.656,122.885,34.294,181.675,55.931,153.913,57.156,228.624,117.17,293.129,235.973l14.289,26.537-7.349,28.986c-4.083,15.922-8.981,37.56-10.206,48.175-2.858,18.78-2.858,19.6,6.532,17.963,7.349-.816,12.656-7.349,21.638-25.72,11.022-22.862,11.84-23.679,14.7-13.881,1.633,5.716,4.491,26.129,5.716,45.317l3.266,34.7-13.065,11.023c-20,16.739-35.518,23.271-46.95,20.413-11.84-2.858-11.84-4.491-4.083-50.624,3.266-19.188,7.757-50.215,10.207-69s5.308-35.927,6.532-37.559c4.9-7.757-3.265-20.413-11.839-19.189-10.206,1.225-8.574-4.083-37.56,148.2-14.289,73.894-18.371,96.757-26.537,134.725-4.491,22.454-10.206,51.44-13.064,64.913-5.716,29.394-30.211,62.463-66.138,88.592-13.472,9.8-27.353,20.821-30.62,24.5-3.674,4.083-27.761,20.821-53.482,37.968s-49.4,33.069-51.848,35.518a87.209,87.209,0,0,1-12.248,6.94c-4.083,1.633-19.188,9.8-33.886,17.963-71.037,40.418-168.61,75.936-227.4,82.877l-17.147,2.041-1.224-19.6c-1.225-16.33-2.449-19.188-10.615-20.413-5.307-.817-10.207-3.674-11.431-6.532-4.491-12.248,10.206-75.528,24.5-102.88l14.289-28.578,29.8-7.757c16.33-4.083,35.518-11.023,42.05-15.106,6.941-4.083,16.33-8.981,21.638-11.431,16.33-6.94,45.725-39.6,45.725-51.032,0-13.064-5.716-13.064-19.6.817-15.514,15.922-28.17,23.271-51.849,31.027-29.394,9.39-60.422,14.289-99.206,16.739-64.1,3.266-99.615-13.881-125.744-60.83-2.449-4.491-6.94-8.165-10.206-8.165-7.757,0-6.124,26.537,2.858,43.275,10.615,21.229,40.417,46.95,60.83,53.073,15.922,4.9,18.78,6.94,20.822,19.188,1.633,7.757,1.633,29.8.408,49.4-2.041,28.578-4.9,39.6-14.7,59.2-6.94,13.064-12.656,28.578-12.656,33.885,0,11.431-7.349,11.023-37.56-2.45-47.358-20.413-59.2-38.376-64.5-100.431-3.266-39.193-4.9-44.908-18.78-66.138a445.441,445.441,0,0,0-32.661-44.5c-9.8-11.432-17.963-22.046-17.963-23.679s-4.491-8.981-10.207-16.33c-5.307-6.94-20.413-34.7-33.069-61.239-19.6-40.826-22.454-49.4-18.78-57.564,7.349-15.922,9.39-55.932,3.674-71.445-2.858-8.165-10.615-17.555-17.963-22.454-16.33-10.207-15.922-8.982-23.679-71.037-8.165-62.463-4.9-99.207,18.372-202.087,9.8-43.684,10.206-57.973,2.45-105.739-7.349-44.092-4.9-51.032,25.72-78.793,28.17-25.72,61.647-38.376,124.927-48.175C1695.742-746.826,1794.948-741.518,1823.118-734.986Zm584.216,20c-3.265,8.981-20.413,6.532-22.045-3.266-.817-4.083.816-10.206,3.674-13.472,4.491-5.308,6.124-5.308,13.065,2.041C2406.926-725.188,2408.968-719.064,2407.334-714.981Zm164.12,41.234c4.9,1.633,8.981,4.9,8.981,7.757,0,4.083-6.124,5.307-21.229,4.9-24.087-.408-39.192,6.941-48.175,23.679-7.348,13.881,1.225,32.661,21.23,45.316,8.573,5.308,15.513,11.431,15.513,13.881,0,6.124-8.573,9.39-13.472,4.491-2.45-2.45-7.757-4.491-11.84-4.491-11.432,0-27.762-27.761-27.762-47.766,0-17.963,11.023-34.293,30.619-45.317C2534.3-676.2,2556.757-677.422,2571.454-673.748ZM2453.06-185.064h13.881l-3.266,24.9c-1.225,13.88-2.857,49.807-3.266,80.018l-.816,55.115-19.6,30.619c-11.023,16.739-27.353,39.6-36.335,51.033-22.454,27.761-124.518,129.009-162.895,161.67-35.927,30.619-43.684,35.927-142.074,97.574-19.188,12.248-52.257,33.477-73.895,47.766-21.637,13.881-50.216,31.844-63.28,39.193-13.064,7.757-41.642,24.087-62.872,36.335-55.523,32.252-53.073,32.252-80.018,6.532-46.95-44.092-81.243-100.84-86.143-141.666l-2.45-21.229,11.84,2.858c6.532,1.225,22.046,5.308,34.294,8.574,33.069,8.165,95.532,11.023,130.642,5.715,31.844-4.9,116.762-31.844,144.932-46.133,42.459-21.229,51.849-26.537,104.105-56.339,16.738-9.8,31.436-18.78,32.66-20s10.207-7.757,20.413-14.7c62.872-41.643,137.991-106.147,161.262-138.4,10.207-14.289,20-33.886,22.046-44.092,5.715-24.5,15.922-89.408,22.046-135.133,4.491-35.926,4.491-36.335,14.7-33.477A107.317,107.317,0,0,0,2453.06-185.064ZM1532.031-40.541c16.738,34.7,37.151,67.771,52.665,85.326,4.491,4.491,7.757,10.615,7.757,13.064,0,2.858,2.858,4.9,6.124,4.9s10.615,9.389,16.33,20.821c8.982,17.146,10.206,24.9,9.39,49.4l-1.225,29.395L1592.452,184c-16.738,12.248-44.908,35.927-62.463,53.482-40.826,40.009-57.564,71.853-82.876,160.037-3.674,12.248-9.39,28.578-12.248,35.927-3.266,7.349-5.715,20.413-5.715,29.395,0,13.88-3.266,19.6-19.6,37.968-24.087,26.537-58.381,94.308-70.22,139.624-14.289,53.89-24.9,62.056-47.358,37.56-19.188-20.413-44.5-59.606-57.156-88.592-3.266-7.757-8.982-20.413-12.248-27.353-3.266-7.349-11.84-37.151-19.188-66.138s-15.514-55.115-18.372-58.789c-4.491-5.308-26.129-68.179-36.743-106.147-4.9-17.555-8.573-15.106,56.339-40.009,72.67-27.762,113.9-51.441,148.2-84.1,17.147-16.739,43.684-51.033,43.684-56.747,0-1.225,6.124-11.84,13.881-23.271,7.757-11.84,15.922-25.72,18.372-31.435,5.716-12.656,13.064-24.9,19.188-30.619,4.491-3.674,31.436-71.853,42.051-104.922,4.49-13.472,18.78-35.927,23.271-35.927C1514.067-76.059,1522.641-60.136,1532.031-40.541Zm915.313,93.9c-23.679,31.844-26.128,34.7-26.128,30.211,0-2.858,5.716-10.615,12.248-17.963,6.94-7.349,13.473-16.33,14.7-20.413,1.225-3.674,4.083-6.94,6.533-6.94S2453.876,45.194,2447.344,53.359Zm-42.867,54.707c-6.94,8.981-22.046,26.537-33.069,38.376-10.615,11.84-19.6,22.862-19.6,24.087,0,5.307-74.3,75.936-80.019,75.936a6.217,6.217,0,0,0-6.124,4.9c0,6.124-41.642,40.009-48.175,40.009a4.471,4.471,0,0,0-4.49,4.083c0,2.449-2.858,5.307-6.124,6.532s-13.881,9.8-23.27,18.372c-9.8,8.981-20,15.106-22.454,13.88-2.858-.816-5.308.817-5.308,4.083s-1.633,6.124-3.266,6.124c-2.041,0-7.349,3.674-11.84,7.757-4.9,4.491-22.863,17.555-40.418,29.395-17.963,11.431-37.152,24.5-43.275,28.578-6.124,4.491-12.248,7.757-13.881,7.757-1.225,0-7.757,3.674-14.289,8.573-6.532,4.491-13.472,6.94-15.922,5.716-2.042-1.225-4.083-.817-4.083,1.633,0,4.083-17.146,14.289-86.55,51.032-23.679,12.656-46.949,22.863-51.44,22.863-7.349,0-17.147,14.7-17.147,26.537,0,7.349-23.271,26.537-32.661,26.537-16.738,0-23.679-29.395-9.8-41.234,8.981-7.349,6.94-11.431-18.78-37.151-13.472-13.064-27.353-29.395-30.619-35.927-3.674-6.94-8.165-12.248-10.206-12.248-2.45,0-4.083-2.45-4.083-5.307,0-3.266-3.675-8.982-8.165-13.064s-8.165-9.39-8.165-11.431c0-2.45-5.716-15.922-12.248-30.211-6.94-14.7-13.473-32.252-14.7-39.193-.816-7.349-.408-10.206.817-6.94,21.638,48.175,33.885,69.4,55.115,95.941,30.62,37.968,62.464,68.587,74.711,71.853,10.615,2.858,33.477-3.674,48.175-13.472,5.715-4.083,11.839-7.349,13.472-7.349s8.165-3.674,15.106-8.574c6.532-4.9,12.656-7.757,13.88-6.532s6.124-1.633,11.023-6.124c8.165-7.349,27.761-19.6,72.261-44.908,7.757-4.491,19.188-11.84,25.312-15.922,5.716-4.491,12.248-7.757,14.289-7.757,2.449,0,7.349-3.674,11.431-8.165,4.083-4.9,10.206-7.349,13.064-6.532,2.858,1.225,5.307-.408,5.307-3.674a6.279,6.279,0,0,1,6.124-6.124c3.266,0,6.124-2.041,6.124-4.083a3.857,3.857,0,0,1,4.083-4.083c2.041,0,18.372-9.8,35.518-21.638,17.555-11.431,35.11-23.271,38.785-25.312,3.674-2.449,16.738-9.8,28.578-16.738,11.839-7.349,25.72-16.739,30.619-21.638s10.206-8.573,11.431-8.573,6.532-4.491,11.84-10.206,10.615-10.206,11.84-10.206c2.041,0,22.454-19.188,90.633-84.918,13.472-13.064,31.844-32.252,40.826-42.867C2414.683,87.245,2422.848,84.795,2404.477,108.066Z" transform="translate(-752.181 1422.9)"/>
              <path id="Trazado_24" data-name="Trazado 24" d="M1129.128-1381.877c-12.248,5.307-26.128,24.5-26.128,35.927,0,14.7,22.046,33.885,38.784,33.885,13.473,0,13.473,0,11.431-17.555-2.041-15.922-.408-19.6,11.023-33.069,7.349-8.165,12.656-15.514,11.84-16.33C1172-1383.1,1136.885-1385.143,1129.128-1381.877Z" transform="translate(329.245 1544.364)"/>
              <path id="Trazado_25" data-name="Trazado 25" d="M1037.034-1359.432c-1.633,1.225-2.858,9.8-2.858,18.78,0,12.656-2.858,18.78-14.289,30.211-17.963,17.963-14.7,23.271,13.881,22.862,23.679,0,37.968-7.757,44.908-24.9,6.94-16.33-2.857-35.927-22.046-44.092C1040.3-1363.106,1040.3-1363.106,1037.034-1359.432Z" transform="translate(38.802 1610.918)"/>
              <path id="Trazado_26" data-name="Trazado 26" d="M1183.922-1308.326c-24.087,10.207-27.762,35.518-7.757,57.156,12.656,13.472,21.229,13.064,24.087-1.633,3.266-14.7,16.33-27.761,31.844-31.027,17.555-4.083,17.147-7.757-1.632-19.6C1211.683-1315.675,1203.11-1316.9,1183.922-1308.326Z" transform="translate(514.915 1759.042)"/>
              <path id="Trazado_27" data-name="Trazado 27" d="M1104.25-1297.329c-1.633,1.633-2.041,8.165-.817,15.105,2.858,15.105-10.206,38.784-22.862,42.051-13.064,3.674-8.982,8.573,11.431,12.656,21.229,4.491,34.7,1.225,49.4-12.248,10.206-9.8,12.248-30.619,4.083-40.826C1133.236-1295.7,1111.19-1304.677,1104.25-1297.329Z" transform="translate(236.954 1801.935)"/>
              <path id="Trazado_28" data-name="Trazado 28" d="M1015.546-1242.357c-11.431,2.449-30.619,9.39-43.683,15.105C954.307-1219.086,949-1214.6,949-1208.063c0,8.573,1.225,8.573,31.844,6.124,17.147-1.633,39.6-3.266,49.4-4.083,24.087-2.041,53.481,4.49,74.711,16.738,39.6,22.046,70.629,35.519,86.551,37.152,15.105,2.041,17.555.817,21.637-8.165,3.675-7.757,3.675-11.84,0-16.33-7.349-8.982-66.138-47.766-73.078-47.766a14.867,14.867,0,0,1-9.39-3.675C1115.977-1241.132,1048.615-1249.706,1015.546-1242.357Z" transform="translate(-145.471 1971.097)"/>
              <path id="Trazado_29" data-name="Trazado 29" d="M1170.074-1227.828c-33.477,1.633-95.941,13.472-104.922,19.6-10.615,6.532-11.84,13.064-4.083,23.271,8.573,12.248,39.193,14.289,104.106,6.532,44.908-5.716,75.528-3.674,94.307,5.715,7.757,3.675,15.105,6.94,17.146,6.94,3.266,0,62.055,33.069,64.913,36.744,6.124,7.348,22.046,15.513,26.945,13.472,11.84-4.491,4.9-18.78-23.271-46.133C1294.592-1210.681,1238.661-1231.911,1170.074-1227.828Z" transform="translate(184.602 2022.705)"/>
              <path id="Trazado_30" data-name="Trazado 30" d="M983.138-1226.605c-10.206,2.449-8.981,9.39,1.225,9.39s72.669,25.312,96.757,39.6c9.8,5.307,18.78,8.982,20,7.757,2.449-2.45-16.739-26.537-27.354-33.886C1052.542-1218.44,1002.734-1231.1,983.138-1226.605Z" transform="translate(-62.031 2025.157)"/>
              <path id="Trazado_31" data-name="Trazado 31" d="M1006.317-1214.96c-15.514,4.9-45.317,31.844-45.317,40.826,0,7.349,15.514,27.354,21.229,27.354,2.041,0,8.982,3.266,14.7,7.348,23.679,15.922,86.551,23.271,113.088,13.065,6.532-2.45,17.963-8.982,25.312-14.7,6.94-5.307,14.7-9.8,17.147-9.8,19.6,0-26.129-40.826-65.729-58.789C1061.839-1221.084,1031.628-1223.125,1006.317-1214.96Zm32.252,17.147c0,2.041-2.449,11.023-4.9,19.188-3.674,12.656-3.266,16.738,2.041,25.312,8.574,12.656,4.491,15.514-15.105,10.206s-41.234-24.5-37.968-33.477C987.945-1190.056,1038.977-1209.653,1038.569-1197.813Zm25.312,8.982c-5.307,9.39-.816,25.312,8.574,31.844,12.656,8.981,24.9,7.348,38.784-4.083,10.615-8.982,12.656-9.39,19.6-4.083,7.757,6.124,7.757,6.124-.408,11.431-11.023,6.532-24.9,9.8-45.725,10.615-13.881.408-18.372-1.633-25.312-10.206-4.9-6.124-8.574-15.514-8.574-20.822,0-12.656,7.349-26.537,12.656-23.679C1065.514-1196.18,1065.922-1192.506,1063.881-1188.832Z" transform="translate(-108.481 2048.622)"/>
              <path id="Trazado_32" data-name="Trazado 32" d="M1084.775-1210.156c-1.225,2.449-.408,15.514,2.449,28.578,6.532,29.8,3.266,81.243-6.124,103.7-16.738,40.418-61.238,123.294-75.936,142.073-13.88,17.147-16.33,22.863-14.289,33.069,4.083,19.188,21.229,38.376,39.193,43.684,15.514,4.9,36.743,25.72,36.743,36.335,0,6.532,26.128,16.33,43.684,16.33,23.271,0,44.5-7.349,69.812-23.679,19.6-12.656,26.537-14.7,43.683-13.881,12.656.408,24.087-1.224,28.578-4.9,7.349-5.308,7.349-6.124.817-16.33-12.656-19.188-36.335-14.289-84.1,18.78-31.435,21.638-56.747,29.8-71.445,22.862-4.9-2.041-15.514-14.7-24.087-28.17-17.964-28.169-29.395-36.743-48.583-37.152-24.5-.816-25.72-14.289-4.083-38.784,8.165-9.39,19.6-25.72,25.312-36.743l31.436-58.381c33.069-60.014,40.417-95.124,29.395-147.789C1099.881-1206.889,1091.716-1221.178,1084.775-1210.156Z" transform="translate(-18.329 2067.496)"/>
              <path id="Trazado_33" data-name="Trazado 33" d="M1138.913-1211.729c-15.514,1.633-35.927,8.573-43.684,14.7-8.982,6.532-1.633,10.615,11.84,6.94,24.087-6.94,20,.817-7.757,15.106-41.234,21.229-40.826,20.413-22.862,38.784,17.555,17.963,42.867,34.294,62.463,40.009,52.665,15.105,130.642,1.224,130.642-23.271,0-3.266-4.9-13.064-11.023-22.045-13.065-17.964-46.95-36.335-82.876-45.317l-22.454-5.307,34.7-2.041,34.7-2.041-14.289-6.94C1192.394-1210.5,1160.551-1214.179,1138.913-1211.729Zm9.39,20.413c-2.858.817-8.574.817-12.248,0-4.083-1.225-1.633-2.041,4.9-2.041C1147.895-1193.358,1150.753-1192.541,1148.3-1191.317Zm-24.087,28.578a166.417,166.417,0,0,0-3.674,26.537c0,17.963-2.449,18.371-20.413,7.349-23.271-14.289-22.863-28.17,1.225-38.376C1124.216-1176.619,1128.3-1175.8,1124.216-1162.739Zm23.679,7.349c-1.633,15.513-.408,20.413,7.349,28.578,16.738,17.964,48.583,10.615,57.564-13.065,3.266-8.573,4.9-9.389,9.8-5.307,8.165,6.532,7.757,22.046-.408,30.211-4.491,4.9-14.289,6.532-34.7,6.532-24.9,0-29.8-1.225-38.376-10.206-8.165-7.757-10.206-13.881-10.206-29.8,0-11.023,1.225-21.229,2.858-22.454C1147.895-1177.436,1149.936-1172.537,1147.895-1155.39Z" transform="translate(211.68 2071.52)"/>
              <path id="Trazado_34" data-name="Trazado 34" d="M975.714-1186.535c8.573,10.206,31.844,18.78,51.032,18.78s55.523-11.023,55.523-16.738c0-2.041-15.106-3.266-33.477-2.858-18.78.408-44.092-.816-56.34-2.857C972.04-1193.068,970.815-1192.659,975.714-1186.535Z" transform="translate(-70.53 2134.917)"/>
              <path id="Trazado_35" data-name="Trazado 35" d="M1067.851-1183.486c-4.9,4.491-3.266,9.39,3.266,9.39,3.266,0,6.124,1.224,6.124,2.858,0,2.041,6.94,7.757,15.514,13.473,8.165,5.716,15.922,11.431,17.147,12.656,5.716,6.94,38.376,13.473,69.4,13.473,26.945.408,40.417-1.633,60.422-9.39,31.027-11.84,28.986-20-3.266-13.064-43.275,9.389-104.514.408-141.665-20.413C1071.117-1187.568,1071.525-1187.568,1067.851-1183.486Z" transform="translate(212.114 2153.505)"/>
              <path id="Trazado_36" data-name="Trazado 36" d="M1085-1123.891c0,2.858,4.9,8.574,11.023,13.065,13.88,10.615,42.458,40.826,48.991,52.256,3.266,5.716,4.491,15.922,2.857,28.17-2.857,23.271,1.225,24.9,16.738,6.532,9.8-11.431,11.023-15.921,9.39-34.293-2.449-26.946-13.065-40.826-44.908-57.973C1103.371-1129.606,1085-1132.872,1085-1123.891Z" transform="translate(273.759 2329.066)"/>
              <path id="Trazado_37" data-name="Trazado 37" d="M1394.665-1098.739c-3.266,3.266-13.472,11.023-23.271,16.739-16.738,9.8-20.821,10.206-92.266,11.84-40.826.408-81.651,1.633-90.634,2.041s-38.376-.408-65.321-1.633c-42.459-1.633-55.115-.816-93.9,8.165-24.5,5.308-46.541,11.431-48.583,13.473-9.39,9.39,4.083,11.84,55.931,9.8,42.05-2.041,64.1-.817,100.839,5.307,34.294,5.716,54.707,6.941,75.528,4.9,15.922-1.633,54.707-5.308,86.959-7.757,52.665-3.675,60.014-5.308,75.528-15.514,9.39-6.124,20.821-15.513,25.72-21.229,8.982-10.207,8.982-10.207,24.087-2.858,11.432,5.308,16.738,6.124,20,2.858,3.266-3.675,0-8.573-11.84-18.78C1415.894-1106.5,1402.83-1108.945,1394.665-1098.739Z" transform="translate(-56.319 2403.121)"/>
              <path id="Trazado_38" data-name="Trazado 38" d="M1055-965.917a4.472,4.472,0,0,0,4.491,4.083c2.041,0,2.858-2.041,1.633-4.083-1.224-2.45-3.266-4.083-4.491-4.083C1055.817-970,1055-968.367,1055-965.917Z" transform="translate(181.282 2818.998)"/>
              <path id="Trazado_39" data-name="Trazado 39" d="M1052-961.468c0,3.266,2.041,4.9,4.083,3.674a7.761,7.761,0,0,0,4.083-6.532,3.769,3.769,0,0,0-4.083-3.674C1054.041-968,1052-965.142,1052-961.468Z" transform="translate(172.034 2825.163)"/>
              <path id="Trazado_40" data-name="Trazado 40" d="M1039-955.917c0,2.041,2.858,2.858,6.124,1.633,3.266-1.633,6.124-3.266,6.124-4.083S1048.39-960,1045.124-960,1039-958.367,1039-955.917Z" transform="translate(131.96 2849.824)"/>
              <path id="Trazado_41" data-name="Trazado 41" d="M1106.628-913.078c-47.358,37.968-96.757,99.615-119.62,149.422-24.5,53.073-46.949,140.849-37.56,146.564,4.083,2.449,21.229-15.514,21.229-22.455,0-4.491,35.11-76.752,43.684-90.225,4.083-6.124,19.188-30.619,33.477-54.707,21.637-35.927,58.789-91.858,85.326-128.6,5.716-7.349,3.674-15.922-3.266-15.922C1128.266-929,1117.651-922.06,1106.628-913.078Z" transform="translate(-150.819 2945.384)"/>
              <path id="Trazado_42" data-name="Trazado 42" d="M2366.864-820.52c-1.633,5.307-3.674,11.023-4.083,13.472-2.449,11.839-23.27,61.647-33.069,80.018-23.271,42.867-92.266,121.661-146.156,166.978-31.027,26.128-114.312,81.652-122.069,81.652-.817,0,1.225-9.39,4.083-21.229,8.574-31.844,7.349-42.051-4.49-47.358-17.555-8.165-25.312.816-38.785,44.092-6.532,21.638-20.413,55.523-30.619,75.528-22.862,45.317-21.637,43.684-60.013,95.941C1879.4-259.983,1812.042-199.969,1721-144.854c-40.826,24.9-150.239,74.3-164.936,74.711-2.858,0-8.982,2.858-13.065,6.124-4.491,3.266-11.023,6.124-14.289,6.124-3.674,0-23.679,5.307-44.5,12.248-52.257,16.738-144.523,35.518-211.069,43.275-6.532.817-23.679,2.858-37.968,4.9-24.9,3.674-25.72,3.266-23.679-4.491,5.307-21.229-14.7-28.578-50.216-19.6-8.165,2.45-33.069,8.165-55.523,12.656C1059.623,1.3,997.568,18.04,979.2,26.205c-45.316,19.188-44.5,18.78-36.335,23.271,4.083,2.45,30.619,5.716,58.789,7.349,57.156,3.674,77.569,7.349,96.757,17.555,12.656,6.532,14.289,6.532,29.8-1.633,8.573-4.491,24.087-8.573,33.478-8.573,13.88-.408,11.023-1.633-15.106-5.716-39.193-6.124-37.152-6.94,18.78-8.165,124.11-3.266,226.175-14.7,309.867-34.7,21.229-4.9,45.316-10.615,53.073-12.248,15.105-3.266,73.894-22.454,87.775-28.17,4.491-2.041,18.372-7.757,30.619-12.656,42.459-17.147,120.028-58.381,130.643-69.4,1.225-1.225,10.206-7.757,20.413-14.289,10.206-6.94,20.413-14.289,23.271-16.33,2.449-2.45,10.615-8.574,18.372-14.289,19.188-14.289,113.5-110.23,113.5-115.945,0-2.449,5.308-10.615,11.84-18.372,17.555-20.821,48.991-75.119,68.179-118.395,9.39-21.229,19.6-39.6,22.454-40.417a96.2,96.2,0,0,0,13.881-4.9c4.491-1.633,15.514-6.124,24.5-9.39,114.72-42.867,206.987-121.253,254.344-217.193,20-40.418,24.087-51.441,33.477-88.184,10.615-43.275,9.8-62.463-2.858-64.1C2372.579-829.5,2368.9-827.053,2366.864-820.52Z" transform="translate(-177.71 3254.143)"/>
              <path id="Trazado_43" data-name="Trazado 43" d="M1067.928-673c-19.188,47.766-59.2,100.839-79.61,105.739-5.307,1.225-9.8,4.083-9.8,5.716s-5.307,5.307-12.248,7.757c-12.248,4.083-16.738,12.248-6.94,13.064,13.064,1.225,24.5-1.633,44.5-11.431,39.6-18.78,59.605-44.092,73.078-93.083,4.49-16.739,6.94-32.252,5.715-34.7C1078.134-687.292,1072.418-684.434,1067.928-673Z" transform="translate(-130.083 3700.641)"/>
              <path id="Trazado_44" data-name="Trazado 44" d="M1111.193-616.39c2.858,1.225,6.532.816,7.757-.409,1.632-1.225-.817-2.449-5.308-2.041C1109.152-618.84,1107.927-617.615,1111.193-616.39Z" transform="translate(348.813 3901.229)"/>
              <path id="Trazado_45" data-name="Trazado 45" d="M1075.768-610.759a21.554,21.554,0,0,0,10.206,0c2.45-1.225.408-2.041-5.307-2.041S1072.91-611.984,1075.768-610.759Z" transform="translate(241.348 3920.094)"/>
              <path id="Trazado_46" data-name="Trazado 46" d="M1065.83-608.226l-16.33,2.858,21.638.816c13.472,0,20.821-1.225,19.188-3.674a6.522,6.522,0,0,0-5.307-3.674C1083.385-611.492,1074.812-609.859,1065.83-608.226Z" transform="translate(164.327 3922.868)"/>
            </g>
          </g>
          <path id="Trazado_61" data-name="Trazado 61" d="M1090.375-1404.528c-21.229,10.206-39.6,22.046-43.684,28.578-6.532,9.8-6.532,11.023.817,18.78,9.8,11.023,27.353,19.6,40.009,19.6,8.982,0,10.206,1.633,10.206,15.513,0,8.165,3.674,25.312,8.165,37.56s8.165,22.862,8.165,23.27,5.716,3.675,12.248,7.349c6.94,3.674,12.248,9.39,12.248,12.656,0,3.674-20.821,28.17-45.725,54.3-65.321,67.771-92.674,106.964-117.578,170.243-18.372,45.725-22.862,61.239-28.578,93.491-2.449,15.514-7.757,39.6-11.431,53.073-7.757,27.761-8.982,127.376-2.45,184.532,5.716,48.991,20.821,60.422,36.335,26.945,4.083-8.574,17.555-26.128,29.8-38.785,23.679-24.9,40.009-32.252,90.633-40.417,12.248-2.041,26.945-4.491,32.661-5.716,26.945-5.308,103.7-6.941,123.7-2.449,11.432,2.449,41.642,8.981,66.138,14.7,24.9,5.307,66.954,16.33,93.9,24.5,26.945,7.757,53.073,14.289,57.973,14.289,5.307,0,32.661,7.757,61.239,16.738,100.839,32.661,180.042,65.321,215.151,88.592,9.39,6.124,22.454,13.881,28.987,17.147,15.514,7.757,72.261,64.1,94.716,93.9,17.555,23.27,37.968,57.564,48.582,80.834,4.9,11.432,5.308,17.555,1.225,36.743-6.532,30.211-6.94,54.707-1.225,56.748,2.45.817,9.39-6.124,15.922-15.514,15.106-22.863,17.147-18.78,25.312,48.582,1.224,12.656,4.9,22.863,8.165,24.087,9.8,3.674,25.312-10.206,30.21-28.17,8.574-30.211,15.922-53.073,20.822-62.055,2.449-4.491,6.124-15.922,8.165-24.9,9.389-46.95,15.513-82.876,15.513-93.9,0-6.941,4.491-19.188,9.8-26.945,14.7-21.23,16.738-33.478,8.573-49.4-21.637-42.458-23.27-69.812-4.9-93.9,15.105-20,35.519-61.239,35.519-71.854,0-3.674,4.491-15.922,10.207-27.353,22.454-44.092,38.784-147.789,26.945-171.06-2.45-4.9-4.9-25.312-6.124-45.316-3.674-76.345-14.7-162.078-22.862-178.817-4.491-9.39-8.165-18.78-8.165-21.229,0-2.858-7.349-15.106-16.331-27.761-8.981-12.248-16.331-23.679-16.331-24.9,0-4.083-25.311-39.6-37.967-53.073-11.431-11.84-18.78-14.7-62.055-24.5-26.945-5.716-54.3-12.248-61.239-14.289-6.532-2.042-30.619-7.757-53.073-12.656-80.835-17.555-144.932-36.335-180.042-53.481-13.473-6.533-28.17-11.84-32.661-11.84-4.083,0-12.656-2.858-19.188-5.716-45.317-24.087-115.945-24.087-161.262-.816-9.8,4.9-25.312,6.532-67.362,6.532-77.161,0-92.675-3.675-119.212-27.762-25.312-23.27-40.418-28.17-94.716-31.027l-37.152-2.041Zm364.574,69.4c0,8.981-13.064,12.656-20,5.716-3.266-3.266-2.45-6.124,3.674-10.615C1448.417-1347.372,1454.949-1345.331,1454.949-1335.125Zm-30.619,13.881c7.349,4.491,1.225,17.555-9.8,19.6-8.573,1.633-13.064-9.8-6.532-17.555C1413.715-1326.143,1416.164-1326.551,1424.33-1321.244Zm53.074,4.083c7.348,4.491,1.225,17.555-9.8,19.6-8.574,1.633-13.064-9.8-6.532-17.555C1466.788-1322.061,1469.238-1322.469,1477.4-1317.161Zm-29.395,29.394c-1.225,10.615-14.7,15.106-20,6.941-4.083-6.941,3.266-15.922,13.473-15.922C1447.192-1296.748,1449.233-1294.3,1448.009-1287.767Zm269.858,17.555c6.532,3.266,12.656,8.573,14.289,12.248,2.449,6.532-6.94,17.964-20.413,25.72-6.124,3.674-7.757,8.573-6.94,25.72.408,11.84-1.225,24.087-3.674,26.945-5.716,6.94-33.478,6.94-48.175-.817-12.248-6.532-28.578-29.395-28.578-40.417,0-13.064,16.738-39.6,29.8-47.358C1670.1-1277.969,1701.536-1278.785,1717.867-1270.212ZM1315.733-1180.4c16.738,8.165,31.435,33.069,28.578,48.583-2.449,14.7-17.146,34.293-31.028,41.642-23.679,12.248-66.546,4.083-76.752-14.289-5.716-11.432-5.716-11.84,12.248-20.821,8.982-4.491,16.739-10.615,16.739-13.473a196.435,196.435,0,0,0,1.225-22.454c.817-10.207,3.266-19.188,6.94-21.638C1282.256-1188.152,1301.036-1187.336,1315.733-1180.4Zm-197.6,26.129c0,9.39-6.532,14.7-10.206,8.573-3.674-5.715.408-16.33,6.124-16.33C1116.1-1162.024,1118.136-1158.349,1118.136-1154.266Zm839.786,11.023c1.224,3.266-.409,8.981-4.083,12.656-5.716,5.716-6.533,5.308-10.615-2.449-2.857-4.9-3.674-10.615-2.449-12.656C1944.858-1151.817,1955.064-1150.592,1957.922-1143.244Zm-32.252,8.981c1.224,7.757-.408,9.39-6.124,8.165-4.083-.816-7.757-5.715-8.573-10.615-1.225-7.757.408-9.39,6.124-8.165C1921.18-1144.06,1924.853-1139.161,1925.67-1134.262Zm-844.277,2.45c0,3.266-1.633,6.94-3.674,8.574-4.9,2.858-9.8-4.9-6.532-10.206C1074.861-1139.569,1081.393-1138.345,1081.393-1131.812Zm28.578,4.491c0,6.532-11.023,13.064-15.106,8.981-1.225-1.633-1.225-5.307,0-8.981C1098.132-1135.486,1109.971-1135.486,1109.971-1127.321Zm854.891,16.738c2.857,7.757-.408,13.881-7.757,13.881-6.124,0-11.431-11.023-7.757-16.739S1962.005-1117.523,1964.863-1110.583Zm-32.252,7.757c0,11.431-11.84,10.206-13.472-1.225-1.225-7.757,0-9.39,6.124-8.165A9.672,9.672,0,0,1,1932.61-1102.826ZM1605.6-1106.5c9.39,3.674,8.165,17.964-1.225,17.964-10.615,0-17.963-9.39-11.839-15.514C1598.247-1109.767,1597.431-1109.767,1605.6-1106.5Zm45.316,16.33c8.982,8.981.817,19.6-10.615,13.473-7.757-4.083-10.206-12.248-4.9-17.147C1639.482-1098.335,1643.564-1097.11,1650.912-1090.17Zm-47.766,19.188a8.542,8.542,0,0,1-5.308,9.39c-8.165,3.266-20.413-7.757-16.33-14.7S1601.514-1079.556,1603.147-1070.982Zm40.826,14.289c1.224,8.165,0,9.39-8.165,8.165-6.124-.816-9.8-4.491-10.615-10.615-1.225-8.165,0-9.389,8.165-8.165C1639.482-1066.491,1643.155-1062.817,1643.973-1056.693Zm-593.607,62.872c2.858,4.9,3.266,8.982.408,13.065-20.413,27.761-19.6,24.9-12.248,47.358,3.674,11.431,6.124,21.229,5.716,22.046-21.229,15.922-38.376,18.78-57.973,9.39-10.206-4.491-18.372-17.147-13.881-21.638.817-.817,8.165,1.225,16.33,4.491,28.986,11.84,48.583,5.307,36.743-13.064-7.349-11.023-4.9-35.11,4.9-46.133,3.266-3.675,6.124-8.165,6.124-9.39,0-4.491-23.271-3.266-34.7,2.041-13.472,6.124-17.555,1.633-8.165-8.981,6.532-6.941,11.84-8.165,29.8-7.349C1039.343-1001.17,1047.1-998.72,1050.366-993.822Zm901.841,8.982c7.348,2.857,17.963,11.023,24.087,17.146,15.105,16.33,11.839,28.578-8.574,31.844-16.738,2.449-23.678,8.981-34.293,31.844-8.165,18.371-16.739,19.6-37.56,6.124-17.963-11.84-28.578-34.294-24.9-53.89C1876.679-981.982,1918.729-999.128,1952.207-984.839ZM1244.7-972.184c0,11.023-10.615,16.33-18.78,9.8-6.94-5.716-7.349-12.657-1.225-18.78C1231.632-988.106,1244.7-982.39,1244.7-972.184Zm42.867,2.041c0,7.349-2.449,10.615-9.39,11.431-9.8,1.633-15.514-7.349-11.431-17.963,1.225-3.675,6.124-5.716,11.431-4.9C1285.114-980.757,1287.563-977.491,1287.563-970.142ZM1239.8-937.89c1.633,11.839-6.124,17.555-16.33,12.248-8.573-4.491-9.39-12.248-2.449-19.189C1228.774-952.587,1238.573-948.913,1239.8-937.89Zm43.684,4.491c0,7.349-2.449,10.615-9.39,11.431-9.8,1.633-15.514-7.349-11.431-17.963,1.225-3.674,6.124-5.716,11.431-4.9C1281.031-944.014,1283.481-940.748,1283.481-933.4Zm316.4,20c14.289,17.146,15.514,33.477,4.083,52.665a61.872,61.872,0,0,1-52.257,29.4c-30.211,0-57.156-20.821-45.317-35.11,2.45-3.266,6.94-5.716,9.8-5.716,9.8,0,17.963-14.7,19.188-34.7.817-16.33,2.858-21.229,10.615-24.9C1561.1-939.115,1585.591-930.95,1599.88-913.395ZM1842.794-776.22c0,12.656-20,11.431-21.637-1.225-1.225-8.165,0-9.389,10.207-8.165C1839.528-784.793,1842.794-782.344,1842.794-776.22Zm33.886,13.881c8.573,5.307,4.083,18.78-6.532,20-9.8,1.633-15.514-7.348-11.431-17.555C1861.165-766.831,1868.514-767.647,1876.679-762.339Zm-51.032,13.064c2.858,11.023-6.532,17.555-17.147,11.84-9.39-4.9-11.023-12.248-4.083-19.189C1810.541-762.748,1823.2-758.665,1825.647-749.275Zm37.968,34.294c-3.266,8.981-20.413,6.532-22.046-3.266-.817-4.083.817-10.206,3.674-13.472,4.491-5.308,6.124-5.308,13.065,2.041C1863.206-725.188,1865.248-719.064,1863.615-714.981Zm164.12,41.234c4.9,1.633,8.981,4.9,8.981,7.757,0,4.083-6.124,5.307-21.229,4.9-24.087-.408-39.193,6.941-48.175,23.679-7.348,13.881,1.225,32.661,21.23,45.316,8.573,5.308,15.513,11.431,15.513,13.881,0,6.124-8.573,9.39-13.472,4.491-2.45-2.45-7.757-4.491-11.84-4.491-11.431,0-27.762-27.761-27.762-47.766,0-17.963,11.023-34.293,30.619-45.317C1990.583-676.2,2013.037-677.422,2027.734-673.748Z" transform="translate(-210.032 1422.9)" fill="#fe0000" stroke="#000" stroke-width="3"/>
        </g>
        <g id="Grupo_2" data-name="Grupo 2" transform="translate(859.114 831.106)">
          <path id="Trazado_62" data-name="Trazado 62" d="M-4716.846,3489.557l-28.42,13.22-3.306,13.219,14.541,20.491,52.217,19.829v-71.386Z" transform="translate(4760.796 -3471.226)" fill="#fff"/>
          <path id="Trazado_63" data-name="Trazado 63" d="M-4730.924,3484.929v55.524l37.675,15.862s58.165-16.524,52.218-23.794,0-11.9-21.813-23.8S-4730.924,3484.929-4730.924,3484.929Z" transform="translate(4815.193 -3471.226)" fill="#82bd3f"/>
          <path id="Trazado_55" data-name="Trazado 55" d="M1007.725-1214.32c-16.738,5.307-45.725,29.8-45.725,38.376,0,2.45,7.757,11.023,16.739,19.6,26.128,24.087,84.917,38.376,116.353,28.17,20.821-6.532,46.541-23.271,46.541-30.211,0-7.757-11.431-19.6-32.661-33.477C1068.147-1219.22,1041.2-1224.935,1007.725-1214.32Zm27.761,14.7c0,2.041-2.449,11.023-4.9,19.188-3.674,12.656-3.266,16.738,2.041,25.312,8.574,12.656,4.491,15.514-15.105,10.206s-41.234-24.5-37.968-33.477C984.863-1191.866,1035.895-1211.463,1035.486-1199.623Zm25.312,8.982c-5.307,9.39-.817,25.312,8.574,31.844,12.656,8.981,25.312,7.348,39.6-4.491,12.248-10.206,13.064-10.615,19.6-4.083s6.532,7.349-1.225,11.839c-11.023,6.532-25.312,9.8-45.725,10.615-13.881.408-18.372-1.633-25.312-10.206-4.9-6.124-8.574-15.514-8.574-20.821,0-12.656,7.349-26.537,12.656-23.679C1062.431-1197.99,1062.839-1194.316,1060.8-1190.642Z" transform="translate(-962 1219.326)" stroke="#707070" stroke-width="0.1"/>
        </g>
        <g id="Grupo_3" data-name="Grupo 3" transform="translate(1283.701 885.525)">
          <path id="Trazado_64" data-name="Trazado 64" d="M-4596.586,3497.266s-11.731.39-16.815,2.346-28.551,14.861-29.725,17.6-3.912,13.3,0,17.209,39.109,29.724,40.283,26.6S-4596.586,3497.266-4596.586,3497.266Z" transform="translate(4654.994 -3487.621)" fill="#fff"/>
          <path id="Trazado_65" data-name="Trazado 65" d="M-4623.939,3497.266s-13.691,50.06-6.65,54.754,32.464,21.12,46.543,17.991,28.945,1.564,50.455-7.04,6.646-37.155-12.126-43.413S-4623.939,3497.266-4623.939,3497.266Z" transform="translate(4693.689 -3487.621)" fill="#82bd3f"/>
          <path id="Trazado_56" data-name="Trazado 56" d="M1123.156-1202.337c-18.78,3.674-57.156,24.9-57.156,31.436,0,8.981,29.8,34.294,52.665,44.908,20.821,9.8,26.129,10.206,73.078,8.981,49.4-1.224,50.624-1.632,60.422-12.656,5.308-6.124,9.8-13.064,9.8-15.513,0-7.349-31.844-35.111-49.4-43.276C1172.555-1207.236,1158.674-1209.277,1123.156-1202.337Zm-2.449,19.6a166.414,166.414,0,0,0-3.674,26.537c0,17.964-2.449,18.372-20.413,7.349-23.271-14.289-22.863-28.17,1.225-38.376C1120.707-1196.621,1124.789-1195.8,1120.707-1182.74Zm23.679,7.349c-1.633,15.513-.409,20.413,7.348,28.578,16.739,17.964,48.583,10.615,57.564-13.065,3.266-8.573,4.9-9.389,9.8-5.307,8.165,6.532,7.757,22.046-.408,30.211-4.491,4.9-14.289,6.532-34.7,6.532-24.9,0-29.8-1.225-38.376-10.206-8.165-7.757-10.206-13.881-10.206-29.8,0-11.023,1.225-21.229,2.858-22.454C1144.385-1197.437,1146.427-1192.539,1144.385-1175.391Z" transform="translate(-1066 1205.996)" stroke="#707070" stroke-width="0.1"/>
        </g>
        <g id="Grupo_4" data-name="Grupo 4" transform="translate(925.167 1399.915)">
          <path id="Trazado_66" data-name="Trazado 66" d="M-4732.7,3937.314s15.639,69.257,27.927,81.543,56.969,83.78,56.969,83.78l29.044,34.628s-5.583,31.277,0,43.565,6.7,26.81,23.458,17.872,39.095-27.927,46.915-43.565,60.323-34.626,90.481-52.5,109.471-54.737,109.471-58.087,102.768-71.49,102.768-71.49L-4081.46,3837.9l125.111-146.333,14.521-65.907s-72.609,88.246-79.312,94.949-68.14,69.258-68.14,69.258l-103.886,92.715-109.471,69.257-107.236,71.491-99.418,64.79s-50.266,35.744-64.788,32.394-49.15-42.447-49.15-42.447l-45.8-59.206-52.5-103.885Z" transform="translate(4743.668 -3606.232)" fill="#a79ba9"/>
          <path id="Trazado_57" data-name="Trazado 57" d="M1758.036-1064.894c-6.533,8.573-21.638,31.027-33.478,49.807-11.431,18.78-26.537,38.784-33.069,44.092s-15.514,17.147-20.821,26.129c-4.9,8.573-11.431,15.922-14.289,15.922-3.266,0-22.454,16.33-43.275,35.926-55.932,53.89-121.661,102.065-204.946,151.872-20,12.248-41.642,25.721-47.766,30.211-5.716,4.9-22.454,15.922-36.743,24.5-48.991,30.619-69.4,44.5-71.445,49.807-.817,2.858-7.349,6.532-13.881,7.757-6.532,1.633-19.6,8.982-28.986,17.147-21.638,17.963-28.986,20.821-58.381,22.046-21.229,1.225-24.087.408-26.945-7.757-2.041-5.308-8.574-12.248-15.106-15.922-12.248-6.94-14.7-10.615-41.642-53.89-8.574-14.289-18.372-27.761-20.821-29.395-2.858-1.633-5.715-7.349-6.532-12.248-.817-5.307-4.9-13.472-9.39-17.963-5.308-5.715-6.532-10.206-4.083-14.289,2.041-3.266,4.083-16.738,4.083-29.8,0-27.353-8.982-39.6-28.578-39.6-19.188,0-25.72,14.289-23.271,47.766,3.266,39.6,9.8,70.22,17.147,81.651a292.819,292.819,0,0,1,16.33,28.578c10.615,19.6,37.968,57.972,64.505,89.817,10.206,12.248,14.7,20.821,13.064,25.312-1.633,3.675-3.674,13.473-4.9,21.638-2.041,13.472-.408,17.146,12.248,29.8,17.963,17.964,35.11,19.188,48.583,4.083,4.9-5.716,11.023-10.206,13.881-10.206,8.165,0,20.821-15.514,23.679-28.986,2.041-10.206,6.532-13.88,27.762-23.679,40.826-17.963,45.724-20.413,52.256-24.5,28.578-17.555,50.216-28.986,55.523-28.986,3.674,0,13.881-6.532,22.454-14.289,8.982-7.757,18.78-14.289,22.046-14.289s13.064-6.532,21.638-14.289,23.679-17.555,33.885-21.637c9.8-4.491,23.271-13.881,29.8-20.821,6.94-6.94,15.514-12.656,19.6-12.656,4.49,0,11.022-5.716,14.7-12.248,6.124-11.023,30.211-26.128,55.115-34.293,3.674-1.225,8.981-6.532,11.431-12.248a23.727,23.727,0,0,1,15.922-11.839c7.349-1.633,14.289-7.757,19.6-16.739,4.9-8.165,11.431-14.7,14.7-14.7s11.432-6.532,17.555-14.289c6.124-8.165,20-20,30.211-26.945,10.615-6.532,24.087-19.6,29.8-28.578,6.124-8.982,14.289-20.413,18.78-25.312,4.083-4.9,14.289-17.146,22.454-27.353s24.5-28.578,36.335-40.826,22.454-25.72,24.087-29.8c1.633-3.674,6.94-8.981,11.84-11.023,5.307-2.041,6.94-3.674,4.491-3.674-8.165-.408-6.124-11.023,5.307-27.762,15.922-23.679,7.757-46.133-16.738-46.133C1772.733-1080,1767.833-1076.734,1758.036-1064.894Zm-7.349,61.239c-23.679,31.844-26.128,34.7-26.128,30.211,0-2.858,5.716-10.615,12.248-17.964,6.94-7.349,13.473-16.33,14.7-20.413,1.225-3.674,4.083-6.94,6.533-6.94S1757.219-1011.821,1750.687-1003.656Zm-42.867,54.707c-6.94,8.981-22.046,26.537-33.069,38.376-10.615,11.84-19.6,22.862-19.6,24.087,0,5.307-74.3,75.936-80.019,75.936a6.217,6.217,0,0,0-6.124,4.9c0,6.124-41.642,40.009-48.175,40.009a4.471,4.471,0,0,0-4.49,4.083c0,2.449-2.858,5.307-6.124,6.532s-13.881,9.8-23.27,18.372c-9.8,8.981-20,15.106-22.454,13.88-2.858-.816-5.308.817-5.308,4.083s-1.633,6.124-3.266,6.124c-2.041,0-7.349,3.674-11.84,7.757-4.9,4.491-22.863,17.555-40.418,29.395-17.964,11.431-37.152,24.5-43.276,28.578-6.124,4.491-12.248,7.757-13.881,7.757-1.225,0-7.757,3.674-14.289,8.573-6.532,4.491-13.472,6.94-15.922,5.716-2.042-1.225-4.083-.817-4.083,1.633,0,4.083-17.146,14.289-86.55,51.032-23.679,12.656-46.95,22.863-51.44,22.863-7.349,0-17.147,14.7-17.147,26.537,0,7.349-23.271,26.537-32.661,26.537-16.738,0-23.679-29.395-9.8-41.234,8.981-7.349,6.94-11.431-18.78-37.151-13.472-13.064-27.353-29.395-30.619-35.927-3.674-6.94-8.165-12.248-10.206-12.248-2.45,0-4.083-2.45-4.083-5.307,0-3.266-3.675-8.982-8.165-13.064s-8.165-9.39-8.165-11.431c0-2.45-5.716-15.922-12.248-30.211-6.94-14.7-13.473-32.252-14.7-39.193-.817-7.349-.408-10.206.817-6.941,21.638,48.175,33.885,69.4,55.115,95.941,30.62,37.968,62.464,68.587,74.711,71.853,10.615,2.858,33.477-3.674,48.175-13.472,5.715-4.083,11.839-7.349,13.472-7.349s8.165-3.674,15.106-8.574c6.532-4.9,12.656-7.757,13.88-6.532s6.124-1.633,11.023-6.124c8.165-7.349,27.761-19.6,72.261-44.908,7.757-4.491,19.188-11.84,25.312-15.922,5.715-4.491,12.248-7.757,14.289-7.757,2.449,0,7.349-3.674,11.431-8.165,4.083-4.9,10.206-7.349,13.064-6.532,2.858,1.225,5.307-.408,5.307-3.674a6.279,6.279,0,0,1,6.124-6.124c3.266,0,6.124-2.041,6.124-4.083a3.857,3.857,0,0,1,4.083-4.083c2.041,0,18.372-9.8,35.518-21.638,17.555-11.431,35.11-23.271,38.785-25.312,3.674-2.449,16.738-9.8,28.578-16.738,11.839-7.349,25.72-16.739,30.619-21.638s10.206-8.573,11.431-8.573,6.532-4.491,11.84-10.206,10.615-10.206,11.84-10.206c2.041,0,22.454-19.188,90.633-84.918,13.472-13.064,31.844-32.252,40.826-42.867C1718.026-969.77,1726.191-972.22,1707.82-948.949Z" transform="translate(-978.179 1080)" stroke="#707070" stroke-width="0.1"/>
        </g>
      </g>
      <path id="Sustracción_1" data-name="Sustracción 1" d="M51.669,297.514h0L0,73.708l.718-.2c81.9-22.58,166.58-45.928,230.659-62.172l.463-.117c10.82-2.739,22.008-5.57,32.3-8.047A116.7,116.7,0,0,1,291.46,0c27.869,0,56.139,9.215,79.6,25.946a133.4,133.4,0,0,1,51.866,74.4,143.893,143.893,0,0,1,1.717,68.967c-4.016,18.485-11.6,36.949-22.553,54.879A218.614,218.614,0,0,1,361,273.537a254.893,254.893,0,0,0-31.425-21.9c-17.341-10.319-43.727-23.241-70.948-26.2a90.04,90.04,0,0,0-9.689-.532c-24,0-45.416,9.9-77.83,24.88C142.073,263.2,105.939,279.9,51.67,297.514Z" transform="translate(-2586.953 4355.496)"/>
    </g>
  </g>
</svg>
