<svg xmlns="http://www.w3.org/2000/svg" width="62" height="62" viewBox="0 0 62 62">
  <g id="spin_disable" transform="translate(-511 -681)">
    <path id="Trazado_152" data-name="Trazado 152" d="M31,0A31,31,0,1,1,0,31,31,31,0,0,1,31,0Z" transform="translate(511 681)" fill="#e9e9e9"/>
    <g id="Grupo_90" data-name="Grupo 90" transform="translate(88.652 7.553)">
      <path id="Trazado_151" data-name="Trazado 151" d="M5.207,0a5.207,5.207,0,0,1,5.207,5.207v24.3A5.207,5.207,0,1,1,0,29.506V5.207A5.207,5.207,0,0,1,5.207,0Z" transform="matrix(0.819, -0.574, 0.574, 0.819, 432.017, 695.421)" fill="#c2c2c2"/>
      <rect id="Rectángulo_93" data-name="Rectángulo 93" width="10.414" height="34.713" rx="5.207" transform="matrix(0.819, 0.574, -0.574, 0.819, 466.148, 689.447)" fill="#afafaf"/>
    </g>
  </g>
</svg>
